<svg xmlns="http://www.w3.org/2000/svg" viewBox="0 0 419.17 438.28"><defs><style>.cls-1,.cls-4{fill:#f19f71;}.cls-2{fill:#f09e72;stroke:#f09e72;}.cls-2,.cls-4,.cls-5,.cls-6{stroke-linecap:round;stroke-linejoin:round;}.cls-2,.cls-3,.cls-4,.cls-6{stroke-width:4px;}.cls-3{fill:#f29f71;stroke-miterlimit:10;}.cls-3,.cls-6{stroke:#f19f71;}.cls-4,.cls-5{stroke:#fff;}.cls-5,.cls-6{fill:#fff;}.cls-5{stroke-width:2px;}</style></defs><title>nofound</title><g id="Capa_2" data-name="Capa 2"><g id="Capa_2-2" data-name="Capa 2"><path class="cls-1" d="M177.51,121.3c-7.63-10-7.14-23.18,1.07-29.45,6.29-4.8-2.2-18.56,5.11-13.49L233,112.52l6,3.75c8.78,5.46,11.88,17.8,5.53,23.85a11.35,11.35,0,0,1-.94.8,12.68,12.68,0,0,1-11.78,1.62l-.29-.1L192.84,131l-4.69-1.39A26.11,26.11,0,0,1,177.51,121.3Z"/><path class="cls-1" d="M373.19,213.49c3.18,7.74.58,16.12-5.77,18.73-4.87,2-1.79,12.3-5.61,7.78L336,209.56l-3.22-3.45c-4.7-5-4.56-13.48.56-16.27a7.54,7.54,0,0,1,.74-.35,8.43,8.43,0,0,1,7.84,1l.17.11,22.88,14,2.77,1.7A17.36,17.36,0,0,1,373.19,213.49Z"/><path class="cls-1" d="M362.82,249.62c3.18,7.74.58,16.12-5.77,18.73-4.87,2-1.79,12.3-5.61,7.78l-25.77-30.45-3.22-3.45c-4.7-5-4.56-13.48.56-16.27a7.54,7.54,0,0,1,.74-.35,8.43,8.43,0,0,1,7.84,1l.17.11,22.88,14,2.77,1.7A17.36,17.36,0,0,1,362.82,249.62Z"/><path class="cls-1" d="M95.87,128c-7.63-10-7.14-23.18,1.07-29.45,6.29-4.8-2.2-18.56,5.11-13.49l49.3,34.17,6,3.75c8.78,5.46,11.88,17.8,5.53,23.85a11.35,11.35,0,0,1-.94.8,12.68,12.68,0,0,1-11.78,1.62l-.29-.1-38.7-11.43-4.69-1.39A26.11,26.11,0,0,1,95.87,128Z"/><path class="cls-2" d="M416.53,253.17c-12.17,102-98.23,181.42-203.15,183.09C96.29,438.12.11,341.9,2,224.81,3.86,112.68,94.41,22.14,206.55,20.31A3.42,3.42,0,0,1,210,23.74V74.9a3.41,3.41,0,0,1-3.32,3.42A150,150,0,0,0,60,228.28c0,82.76,67.23,150,150,150A150,150,0,0,0,360,228.56a3.25,3.25,0,0,1,0-.54l5.74-33.91a3.42,3.42,0,0,0,0-.81L363,153.45l0-.31A12.67,12.67,0,0,1,367.06,142c.32-.27.65-.52,1-.75,7.27-4.9,18.66.77,22.11,10.52l2.37,6.69,19,52.12A92.38,92.38,0,0,1,416.53,253.17Z"/><path class="cls-3" d="M154.24,88l16.55-65.35A22.68,22.68,0,0,1,198.34,6.2l128,32.42A18.74,18.74,0,0,1,338,66.1a88,88,0,0,1-97.93,41.45"/><path class="cls-4" d="M244.27,94c-6.06,23.94-31,38.28-55.79,32S148.6,95.24,154.66,71.3l13.12-51.82C171,7,184-.5,196.91,2.77a24.63,24.63,0,0,1,10,5.15l8,13.76,21.28,34.42,5,8.13A44.07,44.07,0,0,1,244.27,94Z"/><path class="cls-5" d="M268.17,47.94a11.78,11.78,0,0,1-2,4.22,11.87,11.87,0,0,0-21.22-5.37,11.87,11.87,0,1,1,23.24,1.16Z"/><path class="cls-6" d="M296.89,31.15l30,50.26a89.63,89.63,0,0,0,12.8-18.21A16.6,16.6,0,0,0,329.05,39.3Z"/></g></g></svg>