<svg xmlns="http://www.w3.org/2000/svg" viewBox="0 0 267.28 214.48">
	<defs>
		<style>.cls-1,.cls-2,.cls-3,.cls-4{stroke-linecap:round;stroke-linejoin:round;}.cls-1,.cls-2,.cls-3{stroke-width:5px;}.cls-4{stroke-width:2px;}
</style>
	</defs>
	<title>Recurso 53</title>
	<g id="Capa_2" data-name="Capa 2">
		<g id="Capa_2-2" data-name="Capa 2">
			<path class="cls-1" style="fill: #AEDEE0; stroke:#EF9D71;" d="M92,2.52a4.8,4.8,0,0,0-3.27,1.29A3.92,3.92,0,0,1,92,2.52Z"/>
			<path class="cls-2" style="fill: #AEDEE0; stroke:#AEDEE0;" d="M256.3,100.53a13.27,13.27,0,0,1,.47,3.47A13.5,13.5,0,0,1,234,113.84a15.34,15.34,0,0,1-19.77,10.83c0,.2,0,.39,0,.59a18,18,0,0,1-36,1.14,8.9,8.9,0,0,0-2.47,6.15v70.58A8.85,8.85,0,0,1,167,212H11.37a8.83,8.83,0,0,1-8.81-9.75,85,85,0,0,1,3.69-17l-.24-.2,7.28-61,.35-3.21.57-5.2c.83-7.58,7.74-13.9,13.51-11.92.26.1.53.21.79.33a8.69,8.69,0,0,1,4.58,7l0,.23,4.39,29,.4,1.88a85.22,85.22,0,0,1,41.95-15.65,8.81,8.81,0,0,0,8-8.8V6.35a3.7,3.7,0,0,1,.58-2A1.1,1.1,0,0,1,88.57,4l.2-.24A4.8,4.8,0,0,1,92,2.52h20.57c3.26,0,5.3,2.38,3.67,4.28l-5.07,5.93-3.58,4.17,14.31,14.32a3.84,3.84,0,0,0,6.55-2.72V6.35a3.84,3.84,0,0,1,4.37-3.81,5.11,5.11,0,0,1,.56,0h20.29c3.26,0,5.3,2.38,3.67,4.28l-5.07,5.93-3.78,4.4L164.91,33.5a8.85,8.85,0,0,0,6.26,2.59h71.36a18.74,18.74,0,0,1,18,23.79A87.78,87.78,0,0,1,254.81,75a13.51,13.51,0,0,1,1.49,25.57Z"/>
			<path id="nariz" class="cls-3" style="fill: #FFF; stroke:#AEDEE0;" d="M212.11,36.09l41.37,41.37a90.83,90.83,0,0,0,9.83-31,9.21,9.21,0,0,0-9.11-10.35Z"/>
			<path id="Ojo" class="cls-4" style="fill: #FFF; stroke:#FFF;" d="M149.56,73.18a17.32,17.32,0,0,1-1.35,6.74,17.45,17.45,0,0,0-32.19,0,17.45,17.45,0,1,1,33.54-6.74Z"/>
		</g>
	</g>
</svg>
