<svg xmlns="http://www.w3.org/2000/svg" viewBox="0 0 264.45 183.37">
	<defs>
		<style>
.cls-2{stroke-miterlimit:10;stroke-width:5px;}.cls-3,.cls-4,.cls-5{stroke-linecap:round;stroke-linejoin:round;}.cls-3,.cls-5{stroke-width:4px;}.cls-4{stroke-width:1.7px;}
</style>
	</defs>
	<title>Recurso 51</title>
	<g id="Capa_2" data-name="Capa 2">
		<g id="Capa_2-2" data-name="Capa 2">
			<path style="fill: #F5F19C;" class="cls-1" d="M43.59,148.63C38.13,160,26.15,165.49,16.84,161c-7.13-3.44-15.55,10.37-14.34,1.55l8.14-59.43.61-7.07C12.15,85.77,21.75,77.41,30,80.34a11.35,11.35,0,0,1,1.14.48,12.68,12.68,0,0,1,6.78,9.77l0,.31,7.33,39.68.89,4.81A26.11,26.11,0,0,1,43.59,148.63Z"/>
			<path style="fill: #F5F19C;" class="cls-2" d="M261.07,28.76A88,88,0,0,1,176.31,93v65.2a22.68,22.68,0,0,1-22.68,22.68H2.5a85.8,85.8,0,0,1,85.8-85.8V27.65A22.68,22.68,0,0,1,111,5H243A18.74,18.74,0,0,1,261.07,28.76Z"/>
			<path style="fill: #F5F19C; stroke:#EF9D71;" class="cls-3" d="M177.06,78.81c0,24.7-20.7,44.73-46.22,44.73s-46.21-20-46.21-44.73V25.35C84.62,12.46,95.43,2,108.76,2A24.63,24.63,0,0,1,119.7,4.54l11.13,11.37L159.91,44l6.87,6.65a44.07,44.07,0,0,1,10.27,28.11Z"/>
			<path style="fill: #EF9D71;" class="cls-4" d="M188.92,28.3a11.78,11.78,0,0,1-.92,4.58,11.87,11.87,0,0,0-21.89,0,11.87,11.87,0,1,1,22.81-4.58Z"/>
			<path style="fill: #F5F19C; stroke:#EF9D71;" class="cls-5" d="M212.64,5,254,46.35A89.63,89.63,0,0,0,262,25.55,16.6,16.6,0,0,0,245.82,5Z"/>
		</g>
	</g>
</svg>
