<svg xmlns="http://www.w3.org/2000/svg" viewBox="0 0 265.89 214.48"><defs><style>.cls-1{fill:#f19f71;}.cls-1,.cls-4{stroke:#f19f71;}.cls-1,.cls-2,.cls-4{stroke-linecap:round;stroke-linejoin:round;}.cls-1,.cls-4,.cls-5{stroke-width:5px;}.cls-2,.cls-3,.cls-5{fill:#fff;}.cls-2{stroke:#fff;stroke-width:2px;}.cls-4{fill:none;}.cls-5{stroke:#f09e72;stroke-miterlimit:10;}</style></defs><title>Recurso 50</title><g id="Capa_2" data-name="Capa 2"><g id="Capa_2-2" data-name="Capa 2"><path class="cls-1" d="M260.58,59.88a88.06,88.06,0,0,1-76.8,63.86,8.82,8.82,0,0,0-8,8.81v70.58A8.85,8.85,0,0,1,167,212H11.37a8.83,8.83,0,0,1-8.81-9.75,85,85,0,0,1,3.69-17l-.24-.2,7.28-61,.35-3.21.57-5.2c.83-7.58,7.74-13.9,13.51-11.92.26.1.53.21.79.33a8.69,8.69,0,0,1,4.58,7l0,.23,4.39,29,.4,1.88a85.22,85.22,0,0,1,42-15.65,8.81,8.81,0,0,0,8-8.8V6.35a3.85,3.85,0,0,1,6.56-2.72l27.57,27.58a3.84,3.84,0,0,0,6.55-2.72V6.35A3.84,3.84,0,0,1,135,3.63L164.91,33.5a8.85,8.85,0,0,0,6.26,2.59h71.36A18.74,18.74,0,0,1,260.58,59.88Z"/><path class="cls-2" d="M149.57,73.18a17.32,17.32,0,0,1-1.35,6.74,17.45,17.45,0,0,0-32.19,0,17.45,17.45,0,1,1,33.54-6.74Z"/><path class="cls-3" d="M263.24,47.46A85.2,85.2,0,0,1,228.41,107a88.67,88.67,0,0,1-9.21,5.88A41,41,0,0,1,202,116.65c-22.19,0-40.18-17.54-40.18-39.16s18-39.16,40.18-39.16h52.74A8.37,8.37,0,0,1,263.24,47.46Z"/><path class="cls-4" d="M260.58,59.88a88.06,88.06,0,0,1-76.8,63.86,8.82,8.82,0,0,0-8,8.81v70.58A8.85,8.85,0,0,1,167,212H11.37a8.83,8.83,0,0,1-8.81-9.75,85,85,0,0,1,3.69-17l-.24-.2,7.28-61,.35-3.21.57-5.2c.83-7.58,7.74-13.9,13.51-11.92.26.1.53.21.79.33a8.69,8.69,0,0,1,4.58,7l0,.23,4.39,29,.4,1.88a85.22,85.22,0,0,1,42-15.65,8.81,8.81,0,0,0,8-8.8V6.35a3.85,3.85,0,0,1,6.56-2.72l27.57,27.58a3.84,3.84,0,0,0,6.55-2.72V6.35A3.84,3.84,0,0,1,135,3.63L164.91,33.5a8.85,8.85,0,0,0,6.26,2.59h71.36A18.74,18.74,0,0,1,260.58,59.88Z"/><path class="cls-3" d="M162.08,31a17.07,17.07,0,0,1-34.13,0c0-.13,0-.27,0-.4h0V5.71S129.09,1,134.51,3c0,0,27.57,27.57,27.56,27.58S162.08,30.84,162.08,31Z"/><path class="cls-3" d="M121.74,31a17.07,17.07,0,0,1-34.13,0c0-.13,0-.27,0-.4h0V5.71S88.75,1,94.17,3c0,0,27.57,27.57,27.56,27.58S121.74,30.84,121.74,31Z"/><path class="cls-5" d="M212.12,36.09l41.37,41.37a90.83,90.83,0,0,0,9.83-31,9.21,9.21,0,0,0-9.11-10.35Z"/></g></g></svg>