<svg xmlns="http://www.w3.org/2000/svg" viewBox="0 0 1928 408.69"><defs><style>.cls-1{fill:#f09e72;stroke:#f09e72;stroke-miterlimit:10;stroke-width:8px;}.cls-2{fill:#afdcdf;}.cls-2,.cls-3{stroke:#afdcdf;stroke-width:9.39px;}.cls-2,.cls-3,.cls-4{stroke-linecap:round;stroke-linejoin:round;}.cls-3,.cls-4,.cls-5{fill:#fff;}.cls-4{stroke:#fff;stroke-width:3.76px;}</style></defs><title>Recurso 47</title><g id="Capa_2" data-name="Capa 2"><g id="Capa_2-2" data-name="Capa 2"><rect class="cls-1" x="4" y="4" width="1920" height="400"/><path class="cls-2" d="M457.22,404,425.45,289.12a16.7,16.7,0,0,1,1.39-12.37,33.82,33.82,0,0,0,64.56-20.07c-.1-.36-.23-.7-.35-1.05a28.79,28.79,0,0,0,30.36-29.49,25.34,25.34,0,0,0,36.25-29.19,24.91,24.91,0,0,0-2.59-6,25.36,25.36,0,0,0-15.49-45.53,164.82,164.82,0,0,0,2.9-30.18,35.18,35.18,0,0,0-44.57-34L368.77,116.88a16.61,16.61,0,0,1-12.62-1.55L318.31,93.88,323,84l6.21-13.27c2-4.25-2.88-7.54-8.78-5.91L283.66,75a9.6,9.6,0,0,0-1,.33,7.22,7.22,0,0,0-6,9.08l11.08,40.07a7.21,7.21,0,0,1-10.49,8.2l-33.06-18.75,4.39-9.34,6.21-13.27c2-4.25-2.88-7.54-8.78-5.91L209.28,95.57a4.6,4.6,0,0,0-.48.15h0a9,9,0,0,0-5.27,4c-.09.18-.17.36-.24.53a2.07,2.07,0,0,0-.2.56,7,7,0,0,0,0,4l55.74,201.58a16.53,16.53,0,0,1-10,19.91,160,160,0,0,0-68.08,49.31l-1.66-3.2-22.46-50.28-.15-.41c-2.28-5.49-6.48-9.49-11.81-10.45-.53-.09-1.07-.15-1.59-.2-11.43-.7-20.77,14.2-18.48,28.33l1.57,9.7,1,6,7.45,49Z"/><path id="nariz" class="cls-3" d="M442.88,96.4l95.57,54.17a170.55,170.55,0,0,0,2.27-61.05,17.29,17.29,0,0,0-21.66-14.18Z"/><path id="Ojo" class="cls-4" d="M348.25,194.83a32.52,32.52,0,0,1,.93,12.87,32.75,32.75,0,0,0-58.25,16.11,32.76,32.76,0,1,1,57.33-29Z"/><path class="cls-5" d="M673.65,242.55a15.5,15.5,0,0,1-6.75-1.5,5.21,5.21,0,0,1-3-4.8V139a4.91,4.91,0,0,1,3-4.65,15.5,15.5,0,0,1,6.75-1.5,18.9,18.9,0,0,1,5.85.75,9.54,9.54,0,0,1,4.35,3,25.83,25.83,0,0,1,4.35,6.6l28.95,56V139a4.73,4.73,0,0,1,3-4.65,15.5,15.5,0,0,1,6.75-1.5,14.88,14.88,0,0,1,6.75,1.5,4.73,4.73,0,0,1,3,4.65v97.2a5.21,5.21,0,0,1-3,4.8,14.88,14.88,0,0,1-6.75,1.5,15.53,15.53,0,0,1-6.45-1.35,10.32,10.32,0,0,1-4.65-4.8l-32.4-60.3v60.15a5.21,5.21,0,0,1-3,4.8A14.88,14.88,0,0,1,673.65,242.55Zm110.79,1.35a33.19,33.19,0,0,1-16.5-4.2,35.5,35.5,0,0,1-11.85-11.25,28.09,28.09,0,0,1-4.35-15v-36q0-2.25,2.85-4.2a12.38,12.38,0,0,1,6.9-2,11.66,11.66,0,0,1,6.75,2q2.85,1.95,2.85,4.2v36a12.32,12.32,0,0,0,1.8,6.45,16.64,16.64,0,0,0,4.8,5.1,11.86,11.86,0,0,0,6.6,2,11.4,11.4,0,0,0,6.6-2,14.67,14.67,0,0,0,4.8-5.1,12.85,12.85,0,0,0,1.8-6.45V177.3q0-2.4,2.85-4.2a12.86,12.86,0,0,1,6.75-1.8,12.49,12.49,0,0,1,7.05,1.8q2.7,1.8,2.7,4.2v36.15a27.65,27.65,0,0,1-4.5,15.15,32.47,32.47,0,0,1-11.85,11.1A31.79,31.79,0,0,1,784.44,243.9Zm80.31,0a45.22,45.22,0,0,1-18.9-3.75,31.44,31.44,0,0,1-12.75-10.8,28.75,28.75,0,0,1-4.65-16.2V200.4a26.86,26.86,0,0,1,4.35-14.85,32.82,32.82,0,0,1,11.85-11,33.49,33.49,0,0,1,16.65-4.2,32.57,32.57,0,0,1,15.3,3.6,30.4,30.4,0,0,1,11.4,9.9,25.23,25.23,0,0,1,4.35,14.7q0,6.45-2.1,9.3a9.25,9.25,0,0,1-5.4,3.45,35.22,35.22,0,0,1-6.6.6H847.8v2.25a13.1,13.1,0,0,0,4.8,10.5q5,3.9,12.75,3.9a20,20,0,0,0,8.25-1.5q3.3-1.5,5.7-2.85a9.25,9.25,0,0,1,4.5-1.35,5.61,5.61,0,0,1,3.9,1.5,10.27,10.27,0,0,1,2.55,3.6,8.42,8.42,0,0,1,.9,3.45q0,2.55-3.3,5.55a26.82,26.82,0,0,1-9.15,5A44.3,44.3,0,0,1,864.75,243.9ZM847.8,200.55h21.9a5.66,5.66,0,0,0,3.45-.75,4.21,4.21,0,0,0,1.05-3.3,10.24,10.24,0,0,0-2-6.15,12.22,12.22,0,0,0-4.8-4.2,13.64,13.64,0,0,0-6.45-1.5,14.22,14.22,0,0,0-6.45,1.5,12.18,12.18,0,0,0-4.95,4.05,10.39,10.39,0,0,0-1.8,6.15Zm79.4,43.35a50.1,50.1,0,0,1-13.8-1.8,28.67,28.67,0,0,1-9.75-5q-3.45-3-3.45-6.15a10.09,10.09,0,0,1,.75-3.6A13.7,13.7,0,0,1,903.2,224a4.74,4.74,0,0,1,3.45-1.5,7.05,7.05,0,0,1,4.35,1.8,43.59,43.59,0,0,0,5.85,3.3q3.6,1.65,9.9,1.65,6.75,0,8.85-2.1a6,6,0,0,0,2.25-4.35,5.78,5.78,0,0,0-2.7-5.1,20.19,20.19,0,0,0-6.6-2.85l-8.7-2.55a49.3,49.3,0,0,1-8.55-3.45,19,19,0,0,1-6.6-6,18.05,18.05,0,0,1-2.55-10,23.22,23.22,0,0,1,2.55-10.5,20,20,0,0,1,8.4-8.4Q919,170.4,929,170.4a47.5,47.5,0,0,1,11.55,1.35,26.86,26.86,0,0,1,9,3.45q3.45,2.25,3.45,4.95a10.37,10.37,0,0,1-.9,3.6,13.8,13.8,0,0,1-2.55,3.9,4.69,4.69,0,0,1-3.75,1.8,10.53,10.53,0,0,1-4-1.05,37.59,37.59,0,0,0-5.25-2.25,21.88,21.88,0,0,0-7.2-1,14.35,14.35,0,0,0-6,1,8.07,8.07,0,0,0-3.3,2.55,5.41,5.41,0,0,0-1.05,3.15,4.65,4.65,0,0,0,2.55,4.2,26,26,0,0,0,6.6,2.55q4.2,1,8.7,2.4a33.29,33.29,0,0,1,8.7,3.6,18.56,18.56,0,0,1,6.75,6.6q2.55,4,2.55,10.65,0,10-7.2,16T927.2,243.9ZM994,242.55q-13.5,0-20.7-5.85-7-5.85-7-18.6V145.5q0-2.7,3.15-4.35a13.75,13.75,0,0,1,6.45-1.65,13.47,13.47,0,0,1,6.6,1.65q3.15,1.65,3.15,4.35v25.8h17.7a3.86,3.86,0,0,1,3.6,2.25,8.68,8.68,0,0,1,1.35,4.8,9.44,9.44,0,0,1-1.35,5,3.89,3.89,0,0,1-3.6,2.1h-17.7v32.7q0,4.5,1.8,6.3t6.6,1.8h5.85q4.2,0,6.15,2.55a8.55,8.55,0,0,1,2.1,5.55,8.74,8.74,0,0,1-2.1,5.7q-2,2.55-6.15,2.55Zm33.56,0a11.23,11.23,0,0,1-6.75-1.95q-2.7-2-2.7-4.35V177.3a5,5,0,0,1,2.7-4.35,12.74,12.74,0,0,1,6.75-1.65,10.63,10.63,0,0,1,6.15,1.65,5,5,0,0,1,2.55,4.35v6.15a25.53,25.53,0,0,1,4.35-6.15,25.79,25.79,0,0,1,6.45-5,15.83,15.83,0,0,1,7.65-2h4.65a6.25,6.25,0,0,1,4.95,2.55,8.57,8.57,0,0,1,2.1,5.85,9.36,9.36,0,0,1-2.1,6.15,6.39,6.39,0,0,1-4.95,2.4h-4.65a14.2,14.2,0,0,0-8.25,2.85,20.44,20.44,0,0,0-6.45,7.65,24.67,24.67,0,0,0-2.55,11.7v26.7q0,2.4-2.85,4.35A12.19,12.19,0,0,1,1027.51,242.55Zm74.74,1.35a31.79,31.79,0,0,1-16-4.2,35,35,0,0,1-11.85-11.4,27.65,27.65,0,0,1-4.5-15.15v-12.3a27.59,27.59,0,0,1,4.35-15,32.38,32.38,0,0,1,11.7-11.25,32.9,32.9,0,0,1,16.35-4.2,32.08,32.08,0,0,1,16.2,4.2,31.29,31.29,0,0,1,11.85,11,27.42,27.42,0,0,1,4.5,15.3v12.3a27.41,27.41,0,0,1-4.5,15,34.54,34.54,0,0,1-12,11.4A30.94,30.94,0,0,1,1102.26,243.9Zm0-16.95a11.86,11.86,0,0,0,6.6-2,14.67,14.67,0,0,0,4.8-5.1,13.94,13.94,0,0,0,1.8-6.75v-12.3a12.32,12.32,0,0,0-1.8-6.45,15.13,15.13,0,0,0-4.8-4.95,10.83,10.83,0,0,0-6.6-2.1,11.86,11.86,0,0,0-6.6,2,14.67,14.67,0,0,0-4.8,5.1,13.17,13.17,0,0,0-1.65,6.45v12.3a14.94,14.94,0,0,0,1.65,6.75,14.67,14.67,0,0,0,4.8,5.1A11.86,11.86,0,0,0,1102.26,227Zm68.11,16.95a50.1,50.1,0,0,1-13.8-1.8,28.67,28.67,0,0,1-9.75-5q-3.45-3-3.45-6.15a10.09,10.09,0,0,1,.75-3.6,13.69,13.69,0,0,1,2.25-3.45,4.74,4.74,0,0,1,3.45-1.5,7.05,7.05,0,0,1,4.35,1.8,43.58,43.58,0,0,0,5.85,3.3q3.6,1.65,9.9,1.65,6.75,0,8.85-2.1a6,6,0,0,0,2.25-4.35,5.78,5.78,0,0,0-2.7-5.1,20.19,20.19,0,0,0-6.6-2.85l-8.7-2.55a49.3,49.3,0,0,1-8.55-3.45,19,19,0,0,1-6.6-6,18.05,18.05,0,0,1-2.55-10,23.22,23.22,0,0,1,2.55-10.5,20,20,0,0,1,8.4-8.4q5.85-3.45,15.9-3.45a47.5,47.5,0,0,1,11.55,1.35,26.86,26.86,0,0,1,9,3.45q3.45,2.25,3.45,4.95a10.37,10.37,0,0,1-.9,3.6,13.81,13.81,0,0,1-2.55,3.9,4.69,4.69,0,0,1-3.75,1.8,10.53,10.53,0,0,1-4.05-1.05,37.59,37.59,0,0,0-5.25-2.25,21.88,21.88,0,0,0-7.2-1,14.35,14.35,0,0,0-6,1,8.07,8.07,0,0,0-3.3,2.55,5.41,5.41,0,0,0-1,3.15,4.65,4.65,0,0,0,2.55,4.2,26,26,0,0,0,6.6,2.55q4.2,1,8.7,2.4a33.29,33.29,0,0,1,8.7,3.6,18.56,18.56,0,0,1,6.75,6.6q2.55,4,2.55,10.65,0,10-7.2,16T1170.37,243.9Zm78.93,31.8a11.23,11.23,0,0,1-6.75-1.95q-2.7-2-2.7-4.2V177.3a5,5,0,0,1,2.7-4.35,12.43,12.43,0,0,1,6.6-1.65,10.91,10.91,0,0,1,6.3,1.65,5,5,0,0,1,2.55,4.35v4.5a24.14,24.14,0,0,1,7.8-7.8,21.47,21.47,0,0,1,12.45-3.6,23.22,23.22,0,0,1,13.65,4.2,27.61,27.61,0,0,1,9.6,11,32.57,32.57,0,0,1,3.6,15.3v12.3a32.53,32.53,0,0,1-3.6,15,31.5,31.5,0,0,1-9.6,11.4,22.27,22.27,0,0,1-32.7-7.5v37.5q0,2.25-2.85,4.2A12.19,12.19,0,0,1,1249.29,275.7ZM1272.54,227a11.15,11.15,0,0,0,6.45-2,16.07,16.07,0,0,0,4.8-5.25,12.35,12.35,0,0,0,1.95-6.6v-12.3a12.32,12.32,0,0,0-1.8-6.45,14.65,14.65,0,0,0-5-4.95,11.49,11.49,0,0,0-6.75-2.1,12.89,12.89,0,0,0-6.3,1.65,14.19,14.19,0,0,0-4.8,4.65,12.92,12.92,0,0,0-2,7.2v15a9.09,9.09,0,0,0,1.65,4.2,21.81,21.81,0,0,0,4.8,4.8A11.73,11.73,0,0,0,1272.54,227Zm78.53,16.95a45.22,45.22,0,0,1-18.9-3.75,31.44,31.44,0,0,1-12.75-10.8,28.75,28.75,0,0,1-4.65-16.2V200.4a26.86,26.86,0,0,1,4.35-14.85,32.82,32.82,0,0,1,11.85-11,33.49,33.49,0,0,1,16.65-4.2,32.57,32.57,0,0,1,15.3,3.6,30.4,30.4,0,0,1,11.4,9.9,25.23,25.23,0,0,1,4.35,14.7q0,6.45-2.1,9.3a9.25,9.25,0,0,1-5.4,3.45,35.22,35.22,0,0,1-6.6.6h-30.45v2.25a13.1,13.1,0,0,0,4.8,10.5q4.95,3.9,12.75,3.9a20,20,0,0,0,8.25-1.5q3.3-1.5,5.7-2.85a9.25,9.25,0,0,1,4.5-1.35,5.61,5.61,0,0,1,3.9,1.5,10.27,10.27,0,0,1,2.55,3.6,8.42,8.42,0,0,1,.9,3.45q0,2.55-3.3,5.55a26.82,26.82,0,0,1-9.15,5A44.3,44.3,0,0,1,1351.08,243.9Zm-17-43.35H1356a5.66,5.66,0,0,0,3.45-.75,4.21,4.21,0,0,0,1-3.3,10.24,10.24,0,0,0-2-6.15,12.22,12.22,0,0,0-4.8-4.2,13.64,13.64,0,0,0-6.45-1.5,14.22,14.22,0,0,0-6.45,1.5,12.18,12.18,0,0,0-4.95,4.05,10.39,10.39,0,0,0-1.8,6.15Zm65.6,42a11.23,11.23,0,0,1-6.75-1.95q-2.7-2-2.7-4.35V177.3A5,5,0,0,1,1393,173a12.74,12.74,0,0,1,6.75-1.65,10.63,10.63,0,0,1,6.15,1.65,5,5,0,0,1,2.55,4.35v6.15a25.53,25.53,0,0,1,4.35-6.15,25.79,25.79,0,0,1,6.45-5,15.83,15.83,0,0,1,7.65-2h4.65a6.25,6.25,0,0,1,5,2.55,8.57,8.57,0,0,1,2.1,5.85,9.36,9.36,0,0,1-2.1,6.15,6.39,6.39,0,0,1-5,2.4h-4.65a14.2,14.2,0,0,0-8.25,2.85,20.44,20.44,0,0,0-6.45,7.65,24.67,24.67,0,0,0-2.55,11.7v26.7q0,2.4-2.85,4.35A12.19,12.19,0,0,1,1399.73,242.55Zm56.25,0a11.23,11.23,0,0,1-6.75-1.95q-2.7-2-2.7-4.35V177.3a5,5,0,0,1,2.7-4.35,12.74,12.74,0,0,1,6.75-1.65,10.63,10.63,0,0,1,6.15,1.65,5,5,0,0,1,2.55,4.35v6.15a25.53,25.53,0,0,1,4.35-6.15,25.79,25.79,0,0,1,6.45-5,15.83,15.83,0,0,1,7.65-2h4.65a6.25,6.25,0,0,1,5,2.55,8.57,8.57,0,0,1,2.1,5.85,9.36,9.36,0,0,1-2.1,6.15,6.39,6.39,0,0,1-5,2.4h-4.65a14.2,14.2,0,0,0-8.25,2.85,20.44,20.44,0,0,0-6.45,7.65,24.67,24.67,0,0,0-2.55,11.7v26.7q0,2.4-2.85,4.35A12.19,12.19,0,0,1,1456,242.55Zm56.4-87.15a10.8,10.8,0,0,1-7.5-2.85,9,9,0,0,1-3.15-6.6,8.38,8.38,0,0,1,3.15-6.6,10.8,10.8,0,0,1,7.5-2.85,10.46,10.46,0,0,1,7.5,2.85,8.54,8.54,0,0,1,3,6.6,9.17,9.17,0,0,1-3,6.6A10.46,10.46,0,0,1,1512.38,155.4Zm0,87.15a11.49,11.49,0,0,1-6.9-1.95q-2.7-2-2.7-4.35V177.3a5,5,0,0,1,2.7-4.35,13.05,13.05,0,0,1,6.9-1.65,13.56,13.56,0,0,1,6.9,1.65,4.92,4.92,0,0,1,2.85,4.35v58.95q0,2.4-2.85,4.35A11.92,11.92,0,0,1,1512.38,242.55Zm52,0q-13.5,0-20.7-5.85t-7.05-18.6V145.5q0-2.7,3.15-4.35a13.75,13.75,0,0,1,6.45-1.65,13.47,13.47,0,0,1,6.6,1.65q3.15,1.65,3.15,4.35v25.8h17.7a3.86,3.86,0,0,1,3.6,2.25,8.68,8.68,0,0,1,1.35,4.8,9.44,9.44,0,0,1-1.35,5,3.89,3.89,0,0,1-3.6,2.1H1556v32.7q0,4.5,1.8,6.3t6.6,1.8h5.85q4.2,0,6.15,2.55a8.55,8.55,0,0,1,2.1,5.55,8.74,8.74,0,0,1-2.1,5.7q-1.95,2.55-6.15,2.55Zm52.93,1.35a31.79,31.79,0,0,1-16-4.2,35,35,0,0,1-11.85-11.4,27.65,27.65,0,0,1-4.5-15.15v-12.3a27.59,27.59,0,0,1,4.35-15,32.38,32.38,0,0,1,11.7-11.25,32.9,32.9,0,0,1,16.35-4.2,32.08,32.08,0,0,1,16.2,4.2,31.29,31.29,0,0,1,11.85,11,27.42,27.42,0,0,1,4.5,15.3v12.3a27.41,27.41,0,0,1-4.5,15,34.54,34.54,0,0,1-12,11.4A30.94,30.94,0,0,1,1617.3,243.9Zm0-16.95a11.86,11.86,0,0,0,6.6-2,14.67,14.67,0,0,0,4.8-5.1,13.94,13.94,0,0,0,1.8-6.75v-12.3a12.32,12.32,0,0,0-1.8-6.45,15.13,15.13,0,0,0-4.8-4.95,10.83,10.83,0,0,0-6.6-2.1,11.86,11.86,0,0,0-6.6,2,14.67,14.67,0,0,0-4.8,5.1,13.17,13.17,0,0,0-1.65,6.45v12.3a14.94,14.94,0,0,0,1.65,6.75,14.67,14.67,0,0,0,4.8,5.1A11.86,11.86,0,0,0,1617.3,227Zm68.11,16.95a50.1,50.1,0,0,1-13.8-1.8,28.7,28.7,0,0,1-9.75-5q-3.45-3-3.45-6.15a10.09,10.09,0,0,1,.75-3.6,13.7,13.7,0,0,1,2.25-3.45,4.75,4.75,0,0,1,3.45-1.5,7.05,7.05,0,0,1,4.35,1.8,43.58,43.58,0,0,0,5.85,3.3q3.6,1.65,9.9,1.65,6.75,0,8.85-2.1a6,6,0,0,0,2.25-4.35,5.78,5.78,0,0,0-2.7-5.1,20.19,20.19,0,0,0-6.6-2.85l-8.7-2.55a49.3,49.3,0,0,1-8.55-3.45,19.06,19.06,0,0,1-6.6-6,18.05,18.05,0,0,1-2.55-10,23.22,23.22,0,0,1,2.55-10.5,20,20,0,0,1,8.4-8.4q5.85-3.45,15.9-3.45a47.5,47.5,0,0,1,11.55,1.35,26.85,26.85,0,0,1,9,3.45q3.45,2.25,3.45,4.95a10.37,10.37,0,0,1-.9,3.6,13.8,13.8,0,0,1-2.55,3.9,4.69,4.69,0,0,1-3.75,1.8,10.53,10.53,0,0,1-4-1.05,37.59,37.59,0,0,0-5.25-2.25,21.88,21.88,0,0,0-7.2-1,14.35,14.35,0,0,0-6,1,8.07,8.07,0,0,0-3.3,2.55,5.41,5.41,0,0,0-1,3.15,4.65,4.65,0,0,0,2.55,4.2,26,26,0,0,0,6.6,2.55q4.2,1,8.7,2.4a33.29,33.29,0,0,1,8.7,3.6,18.56,18.56,0,0,1,6.75,6.6q2.55,4,2.55,10.65,0,10-7.2,16T1685.41,243.9Zm48.45-31.65a10,10,0,0,1-5.25-1.35,4.69,4.69,0,0,1-2.25-4.35q0-9.9-.45-21.45t-1.05-23.1q-.45-11.55-.45-21.45a7.15,7.15,0,0,1,2.7-6,10.19,10.19,0,0,1,6.75-2.25,9.75,9.75,0,0,1,6.45,2.25,7,7,0,0,1,2.85,6q0,9.9-.45,21.45t-1.05,23.1q-.45,11.55-.45,21.45a4.57,4.57,0,0,1-2.55,4.35A10.31,10.31,0,0,1,1733.86,212.25Zm.15,31.2a10,10,0,0,1-7.35-3,10.43,10.43,0,0,1-2.85-7.2,10,10,0,0,1,10.2-10.2,9.65,9.65,0,0,1,7.05,3,9.82,9.82,0,0,1,3,7.2,10.15,10.15,0,0,1-3,7.2A9.65,9.65,0,0,1,1734,243.45Zm33-31.2a10,10,0,0,1-5.25-1.35,4.69,4.69,0,0,1-2.25-4.35q0-9.9-.45-21.45t-1-23.1q-.45-11.55-.45-21.45a7.15,7.15,0,0,1,2.7-6,10.19,10.19,0,0,1,6.75-2.25,9.75,9.75,0,0,1,6.45,2.25,7,7,0,0,1,2.85,6q0,9.9-.45,21.45t-1.05,23.1q-.45,11.55-.45,21.45a4.57,4.57,0,0,1-2.55,4.35A10.31,10.31,0,0,1,1767,212.25Zm.15,31.2a10,10,0,0,1-7.35-3,10.43,10.43,0,0,1-2.85-7.2,10,10,0,0,1,10.2-10.2,9.65,9.65,0,0,1,7.05,3,9.82,9.82,0,0,1,3,7.2,10.15,10.15,0,0,1-3,7.2A9.65,9.65,0,0,1,1767.11,243.45Z"/></g></g></svg>