<svg width="1920" height="409" viewBox="0 0 1920 409" fill="none" xmlns="http://www.w3.org/2000/svg">
<g clip-path="url(#clip0_1264_1672)">
<rect width="1920" height="408.69" fill="#EF9D71"/>
<path d="M781.798 260C779.025 260 776.785 259.36 775.078 258.08C773.478 256.8 772.678 255.253 772.678 253.44V149.6C772.678 147.787 773.478 146.24 775.078 144.96C776.785 143.68 779.025 143.04 781.798 143.04H810.118C817.265 143.04 823.665 144.267 829.318 146.72C834.971 149.067 839.451 152.96 842.758 158.4C846.171 163.733 847.878 170.88 847.878 179.84V223.2C847.878 232.16 846.171 239.36 842.758 244.8C839.451 250.133 834.971 254.027 829.318 256.48C823.665 258.827 817.265 260 810.118 260H781.798ZM793.478 241.76H810.118C815.451 241.76 819.611 240.267 822.598 237.28C825.585 234.187 827.078 229.493 827.078 223.2V179.84C827.078 173.547 825.585 168.907 822.598 165.92C819.611 162.827 815.505 161.28 810.278 161.28H793.478V241.76ZM895.727 261.44C889.54 261.44 883.834 259.947 878.607 256.96C873.38 253.867 869.167 249.813 865.967 244.8C862.767 239.787 861.167 234.4 861.167 228.64V215.52C861.167 209.76 862.714 204.427 865.807 199.52C868.9 194.507 873.06 190.507 878.287 187.52C883.62 184.533 889.434 183.04 895.727 183.04C902.02 183.04 907.78 184.533 913.007 187.52C918.34 190.4 922.554 194.293 925.647 199.2C928.847 204.107 930.447 209.547 930.447 215.52V228.64C930.447 234.293 928.847 239.627 925.647 244.64C922.447 249.653 918.18 253.707 912.847 256.8C907.62 259.893 901.914 261.44 895.727 261.44ZM895.727 243.36C898.287 243.36 900.634 242.667 902.767 241.28C904.9 239.893 906.607 238.08 907.887 235.84C909.167 233.493 909.807 231.093 909.807 228.64V215.52C909.807 213.067 909.167 210.773 907.887 208.64C906.607 206.507 904.9 204.747 902.767 203.36C900.74 201.867 898.394 201.12 895.727 201.12C893.167 201.12 890.82 201.813 888.687 203.2C886.554 204.587 884.847 206.4 883.567 208.64C882.394 210.773 881.807 213.067 881.807 215.52V228.64C881.807 231.093 882.394 233.493 883.567 235.84C884.847 238.08 886.554 239.893 888.687 241.28C890.82 242.667 893.167 243.36 895.727 243.36ZM953.818 260C950.831 260 948.378 259.307 946.458 257.92C944.538 256.533 943.578 254.987 943.578 253.28V190.4C943.578 188.48 944.538 186.933 946.458 185.76C948.378 184.587 950.831 184 953.818 184C956.378 184 958.511 184.587 960.218 185.76C962.031 186.933 962.938 188.48 962.938 190.4V195.2C964.538 192.107 967.151 189.333 970.778 186.88C974.511 184.32 979.045 183.04 984.378 183.04C989.391 183.04 993.978 184.533 998.138 187.52C1002.3 190.4 1005.6 194.293 1008.06 199.2C1010.62 204.107 1011.9 209.547 1011.9 215.52V253.28C1011.9 255.52 1010.83 257.227 1008.7 258.4C1006.56 259.467 1004.16 260 1001.5 260C999.151 260 996.858 259.467 994.618 258.4C992.378 257.227 991.258 255.52 991.258 253.28V215.52C991.258 213.067 990.618 210.773 989.338 208.64C988.165 206.507 986.511 204.747 984.378 203.36C982.245 201.867 979.898 201.12 977.338 201.12C975.205 201.12 973.125 201.707 971.098 202.88C969.071 204.053 967.418 205.707 966.138 207.84C964.858 209.973 964.218 212.533 964.218 215.52V253.28C964.218 254.987 963.205 256.533 961.178 257.92C959.151 259.307 956.698 260 953.818 260ZM1043.65 261.44C1037.99 261.44 1033.09 259.733 1028.93 256.32C1024.87 252.8 1022.85 247.413 1022.85 240.16C1022.85 234.08 1024.39 229.333 1027.49 225.92C1030.69 222.507 1035.06 220.107 1040.61 218.72C1046.26 217.333 1052.77 216.64 1060.13 216.64H1066.69V214.56C1066.69 212.213 1066.21 209.92 1065.25 207.68C1064.39 205.44 1062.95 203.573 1060.93 202.08C1059.01 200.587 1056.23 199.84 1052.61 199.84C1048.55 199.84 1045.41 200.267 1043.17 201.12C1041.03 201.867 1039.38 202.667 1038.21 203.52C1037.03 204.373 1035.75 204.8 1034.37 204.8C1032.13 204.8 1030.37 203.68 1029.09 201.44C1027.91 199.2 1027.33 196.907 1027.33 194.56C1027.33 192.32 1028.66 190.347 1031.33 188.64C1034.1 186.827 1037.46 185.44 1041.41 184.48C1045.35 183.52 1049.19 183.04 1052.93 183.04C1061.25 183.04 1067.91 184.533 1072.93 187.52C1077.94 190.507 1081.57 194.347 1083.81 199.04C1086.15 203.733 1087.33 208.8 1087.33 214.24V253.28C1087.33 255.2 1086.37 256.8 1084.45 258.08C1082.53 259.36 1080.13 260 1077.25 260C1074.58 260 1072.34 259.36 1070.53 258.08C1068.82 256.8 1067.97 255.2 1067.97 253.28V248.8C1065.09 252.107 1061.67 255.04 1057.73 257.6C1053.89 260.16 1049.19 261.44 1043.65 261.44ZM1051.97 246.08C1054.21 246.08 1056.45 245.333 1058.69 243.84C1060.93 242.347 1062.79 240.427 1064.29 238.08C1065.89 235.733 1066.69 233.28 1066.69 230.72V227.36H1064.29C1060.77 227.36 1057.41 227.573 1054.21 228C1051.01 228.427 1048.39 229.387 1046.37 230.88C1044.45 232.267 1043.49 234.453 1043.49 237.44C1043.49 240.427 1044.29 242.613 1045.89 244C1047.59 245.387 1049.62 246.08 1051.97 246.08ZM1134.8 261.44C1126.69 261.44 1120.08 260 1114.96 257.12C1109.84 254.24 1106.05 250.347 1103.6 245.44C1101.15 240.427 1099.92 234.827 1099.92 228.64V215.84C1099.92 209.653 1101.09 204.107 1103.44 199.2C1105.89 194.187 1109.68 190.24 1114.8 187.36C1120.03 184.48 1126.59 183.04 1134.48 183.04C1139.49 183.04 1143.92 183.627 1147.76 184.8C1151.6 185.973 1154.64 187.52 1156.88 189.44C1159.12 191.36 1160.24 193.387 1160.24 195.52C1160.24 196.8 1159.87 198.24 1159.12 199.84C1158.48 201.333 1157.52 202.667 1156.24 203.84C1155.07 205.013 1153.68 205.6 1152.08 205.6C1150.91 205.6 1149.68 205.227 1148.4 204.48C1147.23 203.733 1145.68 202.987 1143.76 202.24C1141.84 201.493 1139.28 201.12 1136.08 201.12C1130.64 201.12 1126.69 202.453 1124.24 205.12C1121.79 207.68 1120.56 211.253 1120.56 215.84V228.64C1120.56 233.227 1121.79 236.853 1124.24 239.52C1126.69 242.08 1130.69 243.36 1136.24 243.36C1139.55 243.36 1142.11 242.933 1143.92 242.08C1145.73 241.227 1147.23 240.427 1148.4 239.68C1149.68 238.933 1150.96 238.56 1152.24 238.56C1154.16 238.56 1155.76 239.093 1157.04 240.16C1158.43 241.227 1159.44 242.56 1160.08 244.16C1160.83 245.653 1161.2 247.04 1161.2 248.32C1161.2 250.453 1160.03 252.533 1157.68 254.56C1155.44 256.587 1152.29 258.24 1148.24 259.52C1144.29 260.8 1139.81 261.44 1134.8 261.44ZM1182.1 167.04C1179.01 167.04 1176.34 166.027 1174.1 164C1171.86 161.867 1170.74 159.52 1170.74 156.96C1170.74 154.187 1171.86 151.84 1174.1 149.92C1176.34 147.893 1179.01 146.88 1182.1 146.88C1185.3 146.88 1187.97 147.893 1190.1 149.92C1192.23 151.84 1193.3 154.187 1193.3 156.96C1193.3 159.52 1192.23 161.867 1190.1 164C1187.97 166.027 1185.3 167.04 1182.1 167.04ZM1182.1 260C1179.11 260 1176.66 259.307 1174.74 257.92C1172.82 256.533 1171.86 254.987 1171.86 253.28V190.4C1171.86 188.48 1172.82 186.933 1174.74 185.76C1176.66 184.587 1179.11 184 1182.1 184C1184.98 184 1187.43 184.587 1189.46 185.76C1191.49 186.933 1192.5 188.48 1192.5 190.4V253.28C1192.5 254.987 1191.49 256.533 1189.46 257.92C1187.43 259.307 1184.98 260 1182.1 260ZM1239.95 261.44C1233.76 261.44 1228.05 259.947 1222.83 256.96C1217.6 253.867 1213.39 249.813 1210.19 244.8C1206.99 239.787 1205.39 234.4 1205.39 228.64V215.52C1205.39 209.76 1206.93 204.427 1210.03 199.52C1213.12 194.507 1217.28 190.507 1222.51 187.52C1227.84 184.533 1233.65 183.04 1239.95 183.04C1246.24 183.04 1252 184.533 1257.23 187.52C1262.56 190.4 1266.77 194.293 1269.87 199.2C1273.07 204.107 1274.67 209.547 1274.67 215.52V228.64C1274.67 234.293 1273.07 239.627 1269.87 244.64C1266.67 249.653 1262.4 253.707 1257.07 256.8C1251.84 259.893 1246.13 261.44 1239.95 261.44ZM1239.95 243.36C1242.51 243.36 1244.85 242.667 1246.99 241.28C1249.12 239.893 1250.83 238.08 1252.11 235.84C1253.39 233.493 1254.03 231.093 1254.03 228.64V215.52C1254.03 213.067 1253.39 210.773 1252.11 208.64C1250.83 206.507 1249.12 204.747 1246.99 203.36C1244.96 201.867 1242.61 201.12 1239.95 201.12C1237.39 201.12 1235.04 201.813 1232.91 203.2C1230.77 204.587 1229.07 206.4 1227.79 208.64C1226.61 210.773 1226.03 213.067 1226.03 215.52V228.64C1226.03 231.093 1226.61 233.493 1227.79 235.84C1229.07 238.08 1230.77 239.893 1232.91 241.28C1235.04 242.667 1237.39 243.36 1239.95 243.36ZM1298.04 260C1295.05 260 1292.6 259.307 1290.68 257.92C1288.76 256.533 1287.8 254.987 1287.8 253.28V190.4C1287.8 188.48 1288.76 186.933 1290.68 185.76C1292.6 184.587 1295.05 184 1298.04 184C1300.6 184 1302.73 184.587 1304.44 185.76C1306.25 186.933 1307.16 188.48 1307.16 190.4V195.2C1308.76 192.107 1311.37 189.333 1315 186.88C1318.73 184.32 1323.26 183.04 1328.6 183.04C1333.61 183.04 1338.2 184.533 1342.36 187.52C1346.52 190.4 1349.82 194.293 1352.28 199.2C1354.84 204.107 1356.12 209.547 1356.12 215.52V253.28C1356.12 255.52 1355.05 257.227 1352.92 258.4C1350.78 259.467 1348.38 260 1345.72 260C1343.37 260 1341.08 259.467 1338.84 258.4C1336.6 257.227 1335.48 255.52 1335.48 253.28V215.52C1335.48 213.067 1334.84 210.773 1333.56 208.64C1332.38 206.507 1330.73 204.747 1328.6 203.36C1326.46 201.867 1324.12 201.12 1321.56 201.12C1319.42 201.12 1317.34 201.707 1315.32 202.88C1313.29 204.053 1311.64 205.707 1310.36 207.84C1309.08 209.973 1308.44 212.533 1308.44 215.52V253.28C1308.44 254.987 1307.42 256.533 1305.4 257.92C1303.37 259.307 1300.92 260 1298.04 260ZM1407.39 261.44C1399.81 261.44 1393.09 260.107 1387.23 257.44C1381.47 254.667 1376.93 250.827 1373.63 245.92C1370.32 240.907 1368.67 235.147 1368.67 228.64V215.04C1368.67 209.28 1370.21 204 1373.31 199.2C1376.51 194.293 1380.72 190.4 1385.95 187.52C1391.28 184.533 1397.2 183.04 1403.71 183.04C1409.68 183.04 1415.12 184.32 1420.03 186.88C1425.04 189.44 1429.09 192.96 1432.19 197.44C1435.28 201.92 1436.83 207.147 1436.83 213.12C1436.83 217.707 1436.08 221.013 1434.59 223.04C1433.09 224.96 1431.17 226.187 1428.83 226.72C1426.59 227.147 1424.24 227.36 1421.79 227.36H1389.31V229.76C1389.31 234.347 1391.01 238.08 1394.43 240.96C1397.95 243.733 1402.48 245.12 1408.03 245.12C1411.55 245.12 1414.48 244.587 1416.83 243.52C1419.17 242.453 1421.2 241.44 1422.91 240.48C1424.61 239.52 1426.21 239.04 1427.71 239.04C1429.31 239.04 1430.69 239.573 1431.87 240.64C1433.04 241.707 1433.95 242.987 1434.59 244.48C1435.23 245.867 1435.55 247.093 1435.55 248.16C1435.55 249.973 1434.37 251.947 1432.03 254.08C1429.79 256.107 1426.53 257.867 1422.27 259.36C1418.11 260.747 1413.15 261.44 1407.39 261.44ZM1389.31 215.2H1412.67C1414.48 215.2 1415.71 214.933 1416.35 214.4C1417.09 213.76 1417.47 212.587 1417.47 210.88C1417.47 208.427 1416.77 206.24 1415.39 204.32C1414.11 202.4 1412.4 200.907 1410.27 199.84C1408.24 198.773 1405.95 198.24 1403.39 198.24C1400.93 198.24 1398.64 198.773 1396.51 199.84C1394.37 200.8 1392.61 202.24 1391.23 204.16C1389.95 205.973 1389.31 208.16 1389.31 210.72V215.2ZM1474 261.44C1468.67 261.44 1463.76 260.8 1459.28 259.52C1454.91 258.133 1451.44 256.373 1448.88 254.24C1446.43 252.107 1445.2 249.92 1445.2 247.68C1445.2 246.507 1445.47 245.227 1446 243.84C1446.64 242.453 1447.44 241.227 1448.4 240.16C1449.47 239.093 1450.7 238.56 1452.08 238.56C1453.58 238.56 1455.12 239.2 1456.72 240.48C1458.43 241.653 1460.51 242.827 1462.96 244C1465.52 245.173 1469.04 245.76 1473.52 245.76C1478.32 245.76 1481.47 245.013 1482.96 243.52C1484.56 242.027 1485.36 240.48 1485.36 238.88C1485.36 236.533 1484.4 234.72 1482.48 233.44C1480.67 232.16 1478.32 231.147 1475.44 230.4C1472.56 229.547 1469.47 228.64 1466.16 227.68C1462.96 226.72 1459.92 225.493 1457.04 224C1454.16 222.4 1451.82 220.267 1450 217.6C1448.19 214.827 1447.28 211.253 1447.28 206.88C1447.28 203.04 1448.19 199.307 1450 195.68C1451.82 192.053 1454.8 189.067 1458.96 186.72C1463.12 184.267 1468.78 183.04 1475.92 183.04C1480.3 183.04 1484.4 183.52 1488.24 184.48C1492.19 185.333 1495.39 186.56 1497.84 188.16C1500.3 189.76 1501.52 191.52 1501.52 193.44C1501.52 194.4 1501.2 195.68 1500.56 197.28C1499.92 198.773 1499.02 200.16 1497.84 201.44C1496.78 202.72 1495.44 203.36 1493.84 203.36C1492.67 203.36 1491.23 202.987 1489.52 202.24C1487.92 201.387 1486.06 200.587 1483.92 199.84C1481.79 199.093 1479.23 198.72 1476.24 198.72C1473.58 198.72 1471.44 199.093 1469.84 199.84C1468.24 200.587 1467.07 201.493 1466.32 202.56C1465.58 203.627 1465.2 204.747 1465.2 205.92C1465.2 207.84 1466.11 209.333 1467.92 210.4C1469.74 211.467 1472.08 212.373 1474.96 213.12C1477.95 213.867 1481.04 214.72 1484.24 215.68C1487.55 216.533 1490.64 217.813 1493.52 219.52C1496.51 221.227 1498.91 223.573 1500.72 226.56C1502.54 229.44 1503.44 233.227 1503.44 237.92C1503.44 245.067 1500.88 250.773 1495.76 255.04C1490.75 259.307 1483.5 261.44 1474 261.44Z" fill="white"/>
<g clip-path="url(#clip1_1264_1672)">
<path d="M458.1 404L426.3 289.1C425.2 285 425.6 280.5 427.7 276.7C433.8 294.4 453 303.7 470.7 297.6C487.6 291.8 497 273.8 492.3 256.6C492.2 256.2 492.1 255.9 491.9 255.5C507.8 256.4 521.4 244.2 522.2 228.3C522.2 227.5 522.3 226.8 522.2 226C534.6 232.5 549.9 227.8 556.4 215.4C559.4 209.7 560.1 203 558.4 196.8C557.8 194.7 556.9 192.7 555.8 190.8C566.9 182.3 569.1 166.4 560.6 155.3C555.8 149 548.3 145.3 540.3 145.3C542.2 135.4 543.2 125.2 543.2 115.1C543.3 95.6999 527.5 79.8999 508.1 79.7999C504.9 79.7999 501.7 80.1999 498.6 81.0999L369.5 116.7C365.3 117.9 360.7 117.3 356.9 115.1L319.1 93.6999L323.8 83.7999L330 70.4999C332 66.1999 327.1 62.9999 321.2 64.5999L284.5 74.9999C284.2 75.0999 283.8 75.1999 283.5 75.2999C279.5 75.7999 276.8 79.4999 277.3 83.3999C277.3 83.6999 277.4 83.9999 277.5 84.3999L288.6 124.5C289.7 128.3 287.4 132.3 283.6 133.4C281.8 133.9 279.8 133.7 278.1 132.7L245 113.9L249.4 104.6L255.6 91.2999C257.6 86.9999 252.7 83.7999 246.8 85.3999L210.1 95.5999C209.9 95.5999 209.8 95.6999 209.6 95.7999C207.4 96.3999 205.5 97.7999 204.3 99.7999C204.2 99.9999 204.1 100.2 204.1 100.3C204 100.5 203.9 100.7 203.9 100.9C203.5 102.2 203.5 103.6 203.9 104.9L259.6 306.5C261.9 314.7 257.6 323.4 249.6 326.4C222.9 336.5 199.4 353.5 181.5 375.7L179.8 372.5L157.3 322.2L157.2 321.8C154.9 316.3 150.7 312.3 145.4 311.3C144.9 311.2 144.3 311.2 143.8 311.1C132.4 310.4 123 325.3 125.3 339.4L126.9 349.1L127.9 355.1L135.4 404.1L458.1 404Z" fill="#AFDCDF" stroke="#AFDCDF" stroke-width="9.39" stroke-linecap="round" stroke-linejoin="round"/>
<path d="M443.7 96.4L539.3 150.6C543.7 130.6 544.5 109.9 541.6 89.5C540.2 80.1 531.4 73.5 522 74.9C521.3 75 520.6 75.1 519.9 75.3L443.7 96.4Z" fill="white" stroke="#AFDCDF" stroke-width="9.39" stroke-linecap="round" stroke-linejoin="round"/>
<path d="M349.1 194.8C350.3 199 350.6 203.4 350 207.7C338.8 193.5 318.2 191 304 202.2C297.2 207.5 292.8 215.3 291.7 223.8C280.5 209.6 283 189 297.2 177.8C311.4 166.6 332 169.1 343.2 183.3C346 186.7 348 190.6 349.1 194.8Z" fill="white" stroke="white" stroke-width="3.76" stroke-linecap="round" stroke-linejoin="round"/>
</g>
</g>
<defs>
<clipPath id="clip0_1264_1672">
<rect width="1920" height="408.69" fill="white"/>
</clipPath>
<clipPath id="clip1_1264_1672">
<rect width="547.5" height="408.7" fill="white" transform="translate(58)"/>
</clipPath>
</defs>
</svg>
