<svg xmlns="http://www.w3.org/2000/svg" viewBox="0 0 260.81 200.11"><defs><style>.cls-1,.cls-2,.cls-5{fill:#d36ea7;stroke-miterlimit:10;}.cls-1,.cls-5,.cls-7{stroke:#d36ea7;}.cls-1{stroke-width:5px;}.cls-2,.cls-4{stroke:#fff;}.cls-2{stroke-width:3px;}.cls-3,.cls-4{fill:#fff;}.cls-4,.cls-6,.cls-7{stroke-linecap:round;stroke-linejoin:round;}.cls-4{stroke-width:2px;}.cls-5,.cls-7{stroke-width:4px;}.cls-6,.cls-7{fill:none;}.cls-6{stroke:#4a324c;stroke-width:8px;}</style></defs><title>Recurso 46</title><g id="Capa_2" data-name="Capa 2"><g id="Capa_3" data-name="Capa 3"><circle class="cls-1" cx="163.06" cy="68.75" r="66.25"/><circle class="cls-2" cx="224.65" cy="89.75" r="34.66"/><rect class="cls-3" x="205.97" y="71.35" width="10.68" height="34.52" rx="4.94" ry="4.94"/><rect class="cls-3" x="229.08" y="71.35" width="10.68" height="34.52" rx="4.94" ry="4.94"/><path class="cls-1" d="M154.23,3.5a33.48,33.48,0,0,1-67,.3Z"/><path id="Ojo" class="cls-4" d="M171.67,54.65a17.32,17.32,0,0,1-1.35,6.74,17.45,17.45,0,0,0-32.19,0,17.45,17.45,0,1,1,33.54-6.74Z"/><path class="cls-5" d="M16.5,155.85c0,37.13,30.1,42.26,67.24,42.26S151,193,151,155.85a67.24,67.24,0,1,0-134.47,0Z"/><path class="cls-6" d="M98.73,108.3s-5.26-8.83-19-8.83-19,8.83-19,8.83"/><path class="cls-5" d="M163.06,116.88V181.3a16.37,16.37,0,0,1-16.37,16.37H24.77a15.94,15.94,0,0,0-3.31.3c-2.64.56-9.68.27-9.68-18.73C11.78,155.85,23,127,23,127Z"/><path class="cls-7" d="M26.15,124.94a14,14,0,1,0-14-14s.82,3.85,3.85,3.85a14,14,0,1,0-14-14"/></g></g></svg>