<?xml version="1.0" encoding="UTF-8"?>
<svg id="Capa_2" data-name="Capa 2" xmlns="http://www.w3.org/2000/svg" viewBox="0 0 65.8 53">
  <defs>
    <style>
      .cls-1 {
        fill: #A3410C;
        stroke-width: 0px;
      }
    </style>
  </defs>
  <g id="Capa_1-2" data-name="Capa 1">
    <path class="cls-1" d="M62.89,8.29c-1.06-.01-2.13-.04-3.19-.04-5.54,0-11.08,0-16.62.05-.98,0-1.7-.3-2.38-1-2.22-2.28-4.49-4.5-6.73-6.76-.35-.35-.76-.54-1.23-.54-.9-.02-1.48.59-1.5,1.59-.02,1.58,0,3.17,0,4.75,0,.33.02.76-.34.83-.24.04-.59-.19-.8-.39-.67-.63-1.3-1.31-1.96-1.96-1.44-1.44-2.89-2.87-4.33-4.32-.48-.48-1.03-.58-1.65-.4-.59.17-.9.59-.96,1.19-.04.35-.05.71-.05,1.06,0,8.65,0,17.3,0,25.95,0,.27.01.55,0,.82-.07.89-.69,1.5-1.57,1.61-.67.08-1.35.18-2.02.29-2.03.33-3.93,1.04-5.75,1.98-.64.33-1.28.66-2.02,1.04-.16-.92-.3-1.74-.43-2.56-.24-1.51-.4-3.03-.71-4.52-.35-1.71-1.94-2.46-3.52-1.7-1.34.65-2,1.78-2.17,3.23-.19,1.68-.37,3.36-.58,5.03-.27,2.22-.62,4.42-.84,6.64-.24,2.52-.5,5.03-1.08,7.5-.14.58-.3,1.15-.46,1.72v1.64c.08.1.19.18.25.3.58,1.17,1.52,1.66,2.83,1.66,12.69-.02,25.38-.03,38.07.02,1.49,0,2.95-1.29,2.92-2.92-.07-5.54-.03-11.08-.03-16.62,0-.3-.01-.6.03-.9.09-.69.6-1.26,1.22-1.37.62-.11,1.24-.17,1.85-.3,1.14-.24,2.31-.42,3.41-.79,1.73-.58,3.38-1.35,4.92-2.34,3.76-2.41,6.56-5.66,8.46-9.69.95-2.01,1.43-4.15,1.82-6.32.29-1.64-.82-3.44-2.87-3.46ZM37.18,19.19c-.07.27-.23.53-.35.79-.08.01-.16.03-.24.04-.61-.94-1.2-1.91-2.28-2.33-1.05-.41-2.13-.45-3.19-.02-1.07.44-1.72,1.36-2.42,2.46-.23-.42-.46-.67-.51-.95-.5-3.02,1-5.08,3.75-5.74,1.71-.41,3.97.73,4.81,2.36.56,1.08.74,2.21.42,3.39ZM64.58,11.84c-.43,1.51-.78,3.04-1.22,4.55-.15.53-.44,1.02-.75,1.7-2.92-2.91-5.7-5.66-8.44-8.46.03-.06.06-.12.09-.17.26-.02.52-.05.77-.05,2.54,0,5.07.07,7.61-.03,1.2-.05,2.32,1.11,1.94,2.45Z"/>
  </g>
</svg>