<?xml version="1.0" encoding="UTF-8"?>
<svg id="Capa_1" data-name="Capa 1" xmlns="http://www.w3.org/2000/svg" viewBox="0 0 1127.83 323.61">
  <defs>
    <style>
      .cls-1 {
        fill: #076367;
        stroke-width: 0px;
      }
    </style>
  </defs>
  <path class="cls-1" d="M384,50.64c-6.5-.06-12.99-.26-19.49-.25-33.82.05-67.65.06-101.47.32-5.96.05-10.38-1.86-14.52-6.11-13.56-13.9-27.44-27.49-41.11-41.28C205.26,1.16,202.8.05,199.92,0c-5.49-.09-9.05,3.61-9.14,9.68-.14,9.66-.05,19.33-.05,28.99,0,2.03.15,4.65-2.09,5.04-1.47.26-3.59-1.17-4.9-2.4-4.12-3.86-7.96-8-11.95-11.99-8.81-8.8-17.67-17.54-26.45-26.36-2.9-2.91-6.28-3.51-10.06-2.43-3.62,1.04-5.49,3.63-5.87,7.28-.22,2.15-.32,4.31-.32,6.47-.02,52.82-.01,105.64-.01,158.46,0,1.67.08,3.34-.06,5-.44,5.41-4.2,9.17-9.56,9.82-4.11.5-8.21,1.11-12.3,1.78-12.39,2.01-23.99,6.33-35.1,12.09-3.9,2.02-7.81,4.04-12.34,6.38-.95-5.64-1.85-10.63-2.64-15.65-1.44-9.2-2.45-18.48-4.33-27.58-2.16-10.41-11.85-15.03-21.49-10.38-8.18,3.95-12.21,10.88-13.23,19.72-1.18,10.24-2.26,20.49-3.53,30.72-1.67,13.53-3.81,27.01-5.13,40.57-1.49,15.38-3.03,30.73-6.59,45.8-.83,3.53-1.85,7.02-2.79,10.53v10c.52.6,1.18,1.13,1.53,1.82,3.56,7.17,9.29,10.14,17.29,10.13,77.48-.11,154.96-.19,232.44.11,9.08.04,17.99-7.87,17.86-17.8-.45-33.82-.17-67.65-.17-101.47,0-1.83-.08-3.68.16-5.49.57-4.24,3.64-7.67,7.47-8.37,3.76-.69,7.58-1.06,11.31-1.84,6.98-1.46,14.1-2.55,20.83-4.81,10.54-3.53,20.63-8.24,30.03-14.28,22.94-14.74,40.03-34.55,51.66-59.18,5.8-12.28,8.74-25.34,11.09-38.6,1.78-10.02-5.03-21.01-17.51-21.13ZM227.03,117.2c-.45,1.67-1.41,3.21-2.13,4.81-.48.08-.96.17-1.44.25-3.7-5.74-7.3-11.65-13.93-14.25-6.42-2.51-13-2.77-19.46-.11-6.55,2.7-10.5,8.28-14.79,15-1.4-2.55-2.81-4.08-3.09-5.79-3.08-18.45,6.08-31.03,22.89-35.05,10.46-2.5,24.24,4.46,29.39,14.4,3.42,6.61,4.52,13.5,2.58,20.73ZM394.31,72.28c-2.6,9.23-4.79,18.59-7.44,27.8-.93,3.25-2.71,6.25-4.56,10.4-17.81-17.77-34.8-34.59-51.55-51.64.18-.35.36-.71.54-1.06,1.58-.1,3.15-.28,4.73-.28,15.49-.02,30.99.41,46.45-.2,7.36-.29,14.15,6.75,11.83,14.97ZM1054.23,166.52c-.19-30.79-.08-61.58-.1-92.37,0-6.14-2.36-8.76-8.45-9.39-1.97-.2-4.02-.21-5.97.08-6.05.88-8.33,3.56-8.35,9.66-.03,11.65,0,23.3-.02,34.95,0,1.51-.22,3.01-.34,4.52-.38.11-.76.23-1.14.34-.81-1.04-1.56-2.14-2.45-3.1-8.86-9.62-22.67-8.11-30.91-.46-4.76,4.42-8.54,9.63-9.39,16.08-.91,6.88-1.03,13.9-1.06,20.85-.04,9.09,3.58,16.8,10.03,23.17,8.36,8.25,19.97,9.31,29.57,2.57,2.41-1.69,4.45-3.89,6.99-6.15,1.34,7.28,6.66,10.54,14.01,8.71,4.49-1.11,7.63-3.57,7.59-9.45ZM1027.72,154.38c-3.39,3.15-7.17,4.38-11.4,2.97-4.24-1.41-6.96-4.77-7.34-9.23-.41-4.78-.41-9.64,0-14.42.47-5.36,5.7-9.4,11.19-9.3,5.48.1,10.41,4.31,10.98,9.64.26,2.46.04,4.97.04,7.46.34,4.68.47,9.21-3.48,12.88ZM466.1,177.06c-7.2-.49-11.9-3.77-14.16-11.55-8.12-27.95-16.95-55.7-25.49-83.53-2.42-7.9-.63-11.28,7.36-13.71,1.89-.57,3.91-.88,5.88-.93,5.15-.13,6.75,1.1,8.14,6.13,6.3,22.94,12.56,45.89,18.84,68.83.43,1.56.95,3.09,1.78,5.8,1.05-3.4,1.79-5.57,2.39-7.79,5.82-21.52,11.6-43.04,17.41-64.56,2.18-8.09,5.81-10.17,13.92-7.79,2.05.6,4.05,1.58,5.85,2.73,3.48,2.24,4.26,4.46,3.03,8.51-9.04,29.76-18.14,59.51-27.19,89.27-1.11,3.64-3.38,6.27-7.01,7.15-3.51.85-7.21,1.66-10.76,1.42ZM1127.68,133.19c-.38-13.85-8.59-24.16-21.4-27.29-9.07-2.21-18.18-2-27.07.97-2.8.93-5.57,2.31-7.94,4.06-3.94,2.91-4.09,8.63-.78,13.51,2.46,3.64,5.43,3.98,10.37,1.06,4.5-2.67,9.39-3.39,14.44-2.77,6.48.79,9.86,5.57,8.92,12.93-1.86,0-3.83-.15-5.76.03-5.62.53-11.33.69-16.8,1.91-13.97,3.1-19.75,12.78-16.6,26.81,1.13,5.03,3.84,8.88,8.54,11.01,8.17,3.7,16.19,3.32,23.69-1.77,2.86-1.94,5.39-4.37,8.42-6.86,1.57,7.55,6.24,10.7,13.45,9.41,1.14-.2,2.28-.53,3.35-.97,3.38-1.38,5.33-3.67,5.3-7.59-.1-11.48.2-22.97-.11-34.45ZM1097.38,159.99c-3.51,2.22-7.61,1.43-9.25-1.49-1.92-3.41-.68-8.18,2.88-9.87,4.26-2.02,8.82-2.46,13.83-1.91-.31,6.08-2.82,10.33-7.46,13.27ZM690.87,168.13c-.08-11.98.15-23.97-.09-35.95-.24-12.08-7.47-21.63-18.94-25.51-7.74-2.61-15.74-3.01-23.62-1.17-4.61,1.08-9.24,2.83-13.34,5.19-5.03,2.89-4.2,8.34-1.16,13.74,2.12,3.76,5.33,3.93,10.35,1.03,4.51-2.6,9.39-3.39,14.45-2.72,6.57.87,9.97,5.78,8.75,12.91-1.84,0-3.81-.16-5.75.03-5.94.6-11.97.87-17.78,2.13-10.28,2.24-15.57,8.33-16.14,18.8-.59,11,3.36,18.22,13.91,20.56,7.56,1.68,14.93.45,21.06-5,1.95-1.73,3.95-3.41,6.02-5.19,2.87,8.62,9.67,11.62,17.54,8.03.15-.07.29-.16.44-.23,2.79-1.34,4.32-3.39,4.3-6.66ZM659.83,160.47c-3.55,1.57-7.25.57-8.66-2.34-1.61-3.31-.39-8,2.93-9.49,4.25-1.91,8.79-2.58,13.42-1.87.28,5.85-3.1,11.67-7.68,13.7ZM826.91,175.51c.63-.22,1.24-.47,1.83-.77,2.74-1.41,4.22-3.47,4.19-6.75-.1-11.99.14-23.99-.11-35.98-.25-11.98-7.73-21.67-19.08-25.42-7.28-2.41-14.77-2.79-22.19-1.31-4.66.93-9.29,2.59-13.58,4.65-5.05,2.43-5.88,7.11-2.54,13.85,2.2,4.43,5.26,4.75,10.93,1.57,4.23-2.37,8.8-3.13,13.5-2.71,6.88.63,10.46,5.31,9.71,12.79-1.69.08-3.49.08-5.26.25-5.45.51-11,.63-16.34,1.72-14.22,2.9-19.6,10.65-17.95,25.05.02.17.03.33.05.5.76,5.92,3.76,10.4,9.21,12.74,7.82,3.34,15.63,3.09,22.86-1.74,3.02-2.01,5.67-4.56,8.85-7.17,2.14,8.38,8.06,11.46,15.92,8.74ZM803.12,159.75c-3.62,2.5-7.87,1.84-9.66-1.24-2.15-3.71-.52-8.67,3.73-10.25,4.01-1.49,8.21-2.38,12.85-1.28-.32,5.91-2.76,9.89-6.92,12.77ZM623.14,117.51c-3.03,7.02-6.27,13.96-9.45,20.92-4.91,10.74-10.16,21.34-14.64,32.25-2.21,5.37-5.89,7.26-11.05,7.63-6.94.51-10.19-1.53-13.16-8.02-7.61-16.64-15.07-33.35-22.97-49.84-3.88-8.1-2.62-10.93,6.24-14.65,1.66-.69,3.52-1.05,5.32-1.21,5.17-.46,6.71.53,8.67,5.45,4.19,10.5,8.32,21.03,12.5,31.54.59,1.5,1.29,2.95,1.95,4.42.35-.04.7-.09,1.06-.13,4.58-11.58,9.16-23.16,13.73-34.74,2.62-6.64,5.54-8.11,12.34-5.78,2.48.85,4.93,2.08,7.08,3.57,3.58,2.49,4.14,4.54,2.39,8.59ZM943.21,117.9c-3.23,7.12-6.42,14.26-9.67,21.37-4.84,10.59-9.98,21.05-14.46,31.78-1.88,4.52-4.89,6.61-9.27,7.08-5.79.62-11.8-.14-15.12-8.12-7.03-16.88-15.07-33.34-22.69-49.97-.62-1.36-1.28-2.72-1.73-4.14-.84-2.65-.15-5.01,2.01-6.72,3.75-2.96,8.01-4.66,12.88-4.71,3.41-.03,5.6,1.39,6.85,4.65,3.57,9.32,7.28,18.58,10.94,27.86,1.2,3.05,2.44,6.08,3.66,9.12.39-.05.78-.11,1.17-.16,4.41-11.12,8.82-22.24,13.23-33.36.55-1.39,1.15-2.76,1.66-4.17.97-2.72,2.98-3.87,5.75-3.89,5.44-.04,10.08,2.06,14.05,5.58,2.52,2.23,2,5.05.74,7.81ZM750.55,175.85c-2.22.47-4.67.56-6.9.18-5.98-1.01-7.9-3.43-7.91-9.48-.03-15.5-.01-31-.01-46.5,0-15.17-.01-30.33,0-45.5,0-6.99,2.42-9.48,9.52-9.86,1.66-.09,3.35-.11,4.98.15,5.98.93,8.02,3.31,8.02,9.32.02,30.66.02,61.33,0,91.99,0,6.2-1.68,8.43-7.71,9.7ZM974.65,114.96c.02,17.12.02,34.24,0,51.36,0,5.69-1.44,7.94-7.01,9.22-2.95.68-6.29.65-9.25.01-5.05-1.09-6.48-3.29-6.52-8.5-.06-8.81-.02-17.62-.02-26.43,0-8.81-.04-17.62.01-26.43.03-5.03,1.82-7.45,6.7-8.26,2.9-.48,6.01-.5,8.91,0,5.32.92,7.16,3.47,7.17,9.02ZM536.45,175.3c-3.37,1.27-6.79,1.51-10.28.42-5.05-1.56-6.78-3.67-6.79-9.04-.05-17.33-.06-34.66,0-51.99.02-5.78,2.2-8.36,7.87-8.92,2.94-.29,6.04-.21,8.9.44,4.58,1.04,5.95,3.11,5.98,7.84.05,8.83.01,17.66.01,26.49s.03,17.66-.01,26.49c-.02,4.71-1.38,6.63-5.68,8.26ZM1044.27,267.28c.02,2.56-1.52,3.52-3.85,3.52-2.45,0-3.66-1.22-3.61-3.72.05-2.16,0-4.33,0-6.49,0-3,.1-6-.03-8.99-.21-4.87-2.94-7.97-6.68-7.79-3.45.17-6.03,3.36-6.1,7.79-.08,4.99-.09,9.99,0,14.99.04,2.6-.84,4.15-3.64,4.24-2.91.1-4.11-.94-4.19-4.2-.12-4.66-.02-9.32-.05-13.99,0-1.33.03-2.69-.25-3.98-.56-2.62-3.12-4.75-5.75-4.72-2.7.04-4.97,1.22-5.84,3.87-.61,1.86-.73,3.92-.79,5.89-.11,4.49-.06,8.99-.05,13.49,0,2.52-1.31,3.6-3.73,3.61-2.41.02-3.79-1.04-3.79-3.55,0-8.66,0-17.32-.02-25.98,0-1.93.78-3.32,2.7-3.61,2.41-.36,4.3.43,4.76,3.52,5.73-5.16,12.36-6.16,17.84,1.41,2.82-1.72,5.39-4.14,8.39-4.97,6.79-1.88,13.67,2.98,14.35,10.19.6,6.44.28,12.97.34,19.46ZM659.24,238.27c-4.68-2.19-9.08-1.18-13.79,3.35,0-7.28-.06-13.39.03-19.5.04-2.62-.93-4.16-3.62-4.32-2.66-.15-3.94,1.19-3.95,4.43-.05,14.65-.02,29.3-.02,43.95,0,2.09.06,4.14,2.74,4.55,2.48.38,4.25-.46,4.75-3.37,4.22,3.85,8.91,5.78,14.17,2.92,5.27-2.87,7.66-7.64,7.56-13.65-.03-1.83.02-3.66-.01-5.49-.11-5.81-2.52-10.38-7.85-12.87ZM658.98,259.32c-.49,3.47-3.57,5.46-6.84,5.29-3.36-.17-6.22-2.85-6.62-6.33-.15-1.32-.02-2.66-.02-4-.04,0-.09,0-.13,0,.13-1.49.15-3,.41-4.47.61-3.36,3.33-5.76,6.47-5.89,2.87-.12,6.11,1.9,6.62,5.04.55,3.38.58,6.97.11,10.36ZM480.34,237.49c-2.46.46-4.7,2.06-7.11,3.16-.45-2.4-2.2-3.41-4.68-2.98-2.59.45-2.68,2.5-2.67,4.62.03,13.32-.02,26.64.04,39.95.02,3.59,1.87,5.07,4.91,4.28,2.25-.58,2.61-2.3,2.61-4.25,0-4.64,0-9.27,0-14.73,7.97,5.53,13.68,5.23,18.17-.87,1.69-2.3,2.74-5.31,3.29-8.15.55-2.89.32-5.98.08-8.96-.63-7.9-7.23-13.44-14.63-12.07ZM487.04,258.96c-.64,3.4-3.33,5.63-6.61,5.66-3.32.02-6.54-2.6-6.85-6.01-.26-2.8-.25-5.67.04-8.47.38-3.67,3.27-6.17,6.66-6.23,3.46-.06,6.48,2.76,6.88,6.58.16,1.48.03,2.99.03,4.49h.14c-.09,1.33-.05,2.68-.29,3.98ZM708.99,256.41c5.64-.14,7.69-2.84,6.55-8.45-1.38-6.77-7.22-11.01-14.74-10.69-7.24.3-13.19,5.69-13.77,12.65-.21,2.48-.09,4.99-.06,7.49.08,5.94,2.87,10.2,8.31,12.47,6.16,2.57,12.28,2.69,18.07-1.21.27-.18.67-.41.71-.67.2-1.2.72-2.57.34-3.6-.56-1.52-1.96-2.15-3.69-1.32-1.5.72-3,1.51-4.58,1.94-6.39,1.74-11.16-1.76-10.97-7.94.28-.17.57-.47.86-.48,4.32-.09,8.65-.09,12.97-.2ZM697.65,244.18c2.58-1.6,6.07-1.52,8.36.3,2.13,1.7,2.84,3.86,1.87,6.74h-12.68c-.86-3.14-.14-5.44,2.45-7.04ZM778.7,256.38c4.63-.14,6.62-2.51,6.1-7.11-.45-4-2.25-7.36-5.66-9.56-4.84-3.13-10.1-3.5-15.21-.95-5.14,2.56-7.97,6.91-7.97,12.84,0,1.33,0,2.66,0,4,.06,12.86,13.74,20.6,24.9,14.09.85-.5,1.96-1.04,2.28-1.83.43-1.07.66-2.69.13-3.53-.52-.8-2.2-1.36-3.24-1.2-1.59.24-3.03,1.34-4.61,1.82-6.32,1.89-11.13-1.37-11.4-8.51,5.1,0,9.89.11,14.68-.03ZM764.05,251.49c0-5.56,1.82-7.99,5.74-8.45,3.3-.39,6.45,1.54,7.39,4.54.85,2.69.23,3.77-2.53,3.88-3.43.13-6.88.03-10.59.03ZM973.89,250.39c.2,5.48.16,10.97.05,16.46-.06,3.03-1.13,3.96-3.87,3.96-2.7,0-3.79-.97-3.89-3.98-.14-4.15-.04-8.31-.05-12.47,0-1.33.08-2.67-.06-3.99-.4-3.76-3.59-6.65-6.98-6.44-3.32.21-6,2.93-6.12,6.65-.17,5.15,0,10.31-.11,15.46-.07,3.4-1.16,4.68-3.77,4.75-2.32.07-3.98-.87-3.99-3.39-.06-8.81-.04-17.62,0-26.43,0-1.99,1.26-3.05,3.07-3.33,2.29-.35,3.95.46,4.27,3.33,8.84-5.93,16.24-4.43,19.97,3.7.81,1.77,1.43,3.79,1.5,5.72ZM594.87,256.4c5.84-.11,8.07-3.04,6.77-8.74-1.51-6.6-7.63-10.83-15.04-10.39-6.94.41-12.91,5.81-13.49,12.45-.26,2.97-.23,6,0,8.98.46,5.73,3.71,9.66,8.96,11.53,6.02,2.15,12.08,2.32,17.58-1.76.26-.2.66-.45.68-.7.09-1.22.54-2.76-.03-3.57-.55-.79-2.23-1.24-3.31-1.1-1.42.19-2.71,1.22-4.12,1.7-6.42,2.18-11.64-1.2-11.74-8.39,4.8,0,9.26.07,13.73-.02ZM581.39,251.47c-.5-5.17,1.12-7.66,5.06-8.36,3.62-.64,7.1,1.6,7.94,5.05.5,2.03-.06,3.27-2.3,3.3-3.59.04-7.18.01-10.71.01ZM514.51,237.25c-8.29.03-14.3,5.76-14.54,13.91-.07,2.33-.13,4.67.02,6.99.57,9.07,10.02,15.45,18.68,12.7,7.21-2.3,10.45-7.47,10.44-16.69,0-1,.03-2,0-3-.27-8.07-6.44-13.95-14.59-13.91ZM520.93,259.81c-.96,3.14-3.71,4.95-6.76,4.8-3.08-.15-5.73-2.16-6.22-5.43-.43-2.92-.5-5.97-.18-8.91.41-3.71,3.35-6.27,6.58-6.37,3.37-.11,6.38,2.63,7.01,6.52.21,1.3.17,2.65.28,4.77-.15,1.03-.19,2.9-.71,4.62ZM930.5,238.42c-5.37-2.07-10.75-1.67-15.9,1.04-.14.08-.35.19-.37.31-.25,1.33-.88,2.77-.58,3.98.42,1.7,1.89,2.11,3.59,1.33,1.2-.55,2.43-1.15,3.71-1.37,6.08-1.06,9.17,1.71,8.73,8.13-1.72.11-3.53.1-5.29.38-2.77.44-5.61.79-8.24,1.68-3.29,1.11-4.97,3.78-5.19,7.25-.23,3.48.42,6.63,3.63,8.71,3.54,2.29,7.24,2.3,10.93.55,1.74-.83,3.28-2.07,5.07-3.22.39,3,2.08,3.92,4.62,3.57,2.64-.37,2.89-2.29,2.87-4.44-.05-5.49.17-10.99-.11-16.46-.26-5.11-2.37-9.47-7.45-11.43ZM924.54,265.4c-2.83.67-4.99-.34-5.58-2.62-.72-2.76.45-4.85,3.24-5.75.62-.2,1.29-.32,1.95-.34,1.79-.05,3.59-.02,5.76-.02.08,4.87-1.91,7.92-5.37,8.73ZM857.91,237.96c-3.82-.6-7.94-.34-11.77.39-3.68.7-4.96,2.89-4,5.08,1.46,3.34,3.6,1.56,5.77.77,6.77-2.45,11.03.54,10.66,7.42-3.91.5-7.92.65-11.75,1.58-5.77,1.4-8.19,6.01-6.8,11.92,1.08,4.6,6.24,7.56,11.47,6.16,2.5-.67,4.76-2.21,7.82-3.7.39,2.43,2,3.83,4.46,3.06,1.17-.37,2.84-1.82,2.84-2.78,0-7.3.06-14.64-.75-21.87-.46-4.18-3.76-7.38-7.96-8.03ZM852.22,265.53c-2.21.19-3.91-.47-4.59-2.76-.71-2.37-.13-4.5,2.32-5.19,2.74-.77,5.66-.92,8.5-1.34.57,5.53-1.94,8.92-6.23,9.29ZM1067.16,237.83c-3.63-.63-7.61-.2-11.27.53-3.76.75-4.87,2.66-3.95,5.02,1.38,3.55,3.61,1.57,5.7.83,6.64-2.36,10.83.49,10.89,7.68-1.6.08-3.25.04-4.85.26-2.79.38-5.67.56-8.3,1.45-4.85,1.66-6.7,5.46-5.74,10.72.82,4.49,3.89,7.42,8.76,7.1,3.3-.22,6.51-1.8,10.59-3.02.17.19.76,1.3,1.67,1.85,2.68,1.62,5.65.2,5.7-2.9.12-6.48.21-12.99-.29-19.44-.41-5.28-3.65-9.18-8.91-10.09ZM1062.12,265.51c-2.38.18-4.34-.45-4.87-3.1-.48-2.42.34-4.46,2.82-5.04,2.66-.63,5.44-.75,8.67-1.15-.24,5.8-2.75,9.01-6.62,9.3ZM750.19,251.36c-.02,5.16.08,10.32-.04,15.47-.07,3.01-1.19,4.01-3.86,3.98-2.44-.03-3.64-1.14-3.61-3.68.07-4.49.08-8.99-.03-13.48-.05-1.8-.21-3.7-.83-5.36-1.13-3.04-4.32-4.78-7.11-4.27-3.02.54-5.4,2.9-5.54,6.19-.23,5.48-.16,10.98-.12,16.47.02,2.34-.7,3.84-3.25,4.1-2.93.29-4.16-.7-4.24-4-.12-5.32-.04-10.65-.04-15.97,0-2.83.02-5.66,0-8.49-.01-1.88-.02-3.78,2.18-4.52,1.97-.67,3.56-.03,4.76,1.68.26.38.69.64,1.11,1.02,4.11-3.47,8.67-4.52,13.44-1.94,4.96,2.69,7.18,7.18,7.15,12.81ZM813.1,261.6c-.02,4.1-1.9,7.08-5.61,8.66-5.39,2.29-10.75,1.69-15.92-.86-.73-.36-1.68-.91-1.86-1.57-.37-1.32-.76-2.98-.26-4.1.73-1.64,2.43-1.5,3.83-.47,2.7,2,5.71,2.56,8.98,2.2,2.03-.22,3.86-1.08,3.73-3.2-.08-1.35-1.25-2.96-2.4-3.83-1.26-.96-3.03-1.29-4.62-1.75-7.61-2.22-10.04-5-9.29-10.74.73-5.58,5.02-8.68,12.2-9.25,2.83.83,5.7,1.54,8.47,2.53,1.65.59,2.38,2.23,1.34,3.63-.72.97-2.31,1.65-3.56,1.75-1.22.09-2.49-.96-3.77-1.08-1.78-.18-3.74-.35-5.35.23-1.14.41-2.33,1.99-2.55,3.21-.15.83,1.17,2.39,2.18,2.85,2.56,1.15,5.37,1.75,7.99,2.78,4.62,1.82,6.5,4.58,6.48,9.03ZM826.45,243.38c0,6.07-.12,11.67.05,17.27.09,2.91,2.22,3.69,4.86,3.83,4.01.21,5.6,1.32,5.47,3.41-.14,2.24-1.66,3-5.9,2.97-8.65-.07-12.05-3.39-12.11-12.09-.07-10.47-.08-20.95.05-31.42.02-1.46.56-3.46,1.6-4.25,2.56-1.94,5.65-.13,5.79,3.23.14,3.46.03,6.94.03,11.19,2.98,0,5.28.02,7.59,0,1.82-.02,2.91.96,3.01,2.64.12,1.94-1.03,3.14-3.02,3.21-2.3.08-4.6.02-7.42.02ZM1091.97,244.61c0,7.14,0,14.29,0,21.43,0,1.89-.05,3.76-2.25,4.49-2.77.92-5.8-.19-5.66-4.01.22-5.97.05-11.96.05-17.94,0-8.47-.06-16.95.06-25.42.02-1.53.43-3.46,1.41-4.45.77-.77,2.77-.68,4.12-.43,1.99.38,2.26,2.14,2.26,3.91-.02,7.48,0,14.95,0,22.43ZM615.87,244.63c0,7.14.05,14.28-.02,21.42-.04,3.53-1.01,4.66-3.68,4.76-2.33.09-3.86-.82-4-3.35-.04-.66-.04-1.33-.04-1.99,0-14.11-.06-28.22.08-42.34.02-1.6.64-3.79,1.78-4.68,2.57-2,5.8.14,5.85,3.77.1,7.47.03,14.94.03,22.41ZM518.98,79.32c.47-4.34,3.25-6.81,7.04-8.24,1.52-.58,3.24-.64,4.92-.94,1.63.32,3.34.41,4.86.99,4.71,1.77,7.68,6.7,6.8,10.98-1.04,5.08-6.21,9.24-11.74,8.97-2.24-.11-4.62-.81-6.62-1.86-3.87-2.03-5.76-5.41-5.27-9.9ZM970.93,88.31c-5.9,4.98-15.33,3.14-18.85-3.68-2.82-5.45.67-12.32,7.13-13.91,1.28-.32,2.63-.34,4.39-.55,1.39.31,3.29.44,4.92,1.15,7.47,3.25,8.63,11.73,2.41,16.99ZM556.18,240.23c.13,2.23-1.07,3.21-3.23,3.6-8.22,1.46-9.94,3.57-9.97,11.92-.01,3.66.09,7.33-.04,10.99-.1,2.92-1.3,4.04-3.89,4.07-2.58.04-3.83-1.06-3.87-4.04-.11-8.16,0-16.32-.06-24.48-.02-2.42.49-4.4,3.28-4.69,2.64-.27,4.1,1.04,3.96,5,3.31-4.32,6.51-5.73,10.49-5.34,1.89.18,3.22.93,3.34,2.97ZM894.92,240.5c.06,2.23-1.37,3.06-3.5,3.37-7.39,1.09-9.74,3.73-9.94,11.07-.1,3.83.05,7.67-.06,11.5-.1,3.4-1.19,4.44-4.01,4.37-2.9-.08-3.54-1.83-3.53-4.34.05-7.83.02-15.66.02-23.49,0-2.16-.34-4.49,2.51-5.29,2.25-.63,3.77.46,5.3,3.83,2.47-2.72,5.3-4.49,9.16-4.31,2.32.11,4,.77,4.06,3.29ZM680.97,254.04c0,4.15.08,8.31-.02,12.45-.08,3.16-1.38,4.39-4.13,4.31-2.77-.08-3.7-1.7-3.7-4.25.03-8.3-.05-16.61.05-24.91.03-2.89,1.36-4.12,3.83-4.1,2.47.02,3.86,1.3,3.94,4.03.11,4.15.03,8.3.03,12.45ZM988.46,266.62c.01,2.56-.83,4.17-3.68,4.19-2.84.01-3.74-.92-3.81-4.5-.08-3.99-.02-7.99-.02-11.99,0-4.16-.06-8.33.02-12.49.06-2.96,1.23-4.22,3.63-4.29,2.43-.07,3.77,1.18,3.8,4.1.09,8.32,0,16.65.05,24.98ZM988.97,225.41c.03,2.06-2.01,4.03-4.2,4.05-2.22.01-4.29-1.86-4.33-3.92-.04-2.07,1.93-3.93,4.22-4,2.28-.07,4.28,1.72,4.31,3.87ZM681.19,225.66c-.1,2.04-2.19,3.87-4.37,3.8-2.16-.07-4.1-2.07-4.03-4.16.07-2.09,2.12-3.85,4.38-3.75,2.29.1,4.12,1.97,4.01,4.11Z"/>
</svg>