<svg width="42" height="43" viewBox="0 0 42 43" fill="none" xmlns="http://www.w3.org/2000/svg">
<mask id="mask0_1003_12" style="mask-type:alpha" maskUnits="userSpaceOnUse" x="0" y="0" width="42" height="43">
<rect y="0.860001" width="42" height="42" fill="#D9D9D9"/>
</mask>
<g mask="url(#mask0_1003_12)">
<path d="M21 39.36C18.5792 39.36 16.3042 38.9007 14.175 37.9819C12.0458 37.0632 10.1937 35.8163 8.61875 34.2413C7.04375 32.6663 5.79688 30.8142 4.87813 28.685C3.95937 26.5559 3.5 24.2809 3.5 21.86C3.5 19.4392 3.95937 17.1642 4.87813 15.035C5.79688 12.9059 7.04375 11.0538 8.61875 9.47878C10.1937 7.90378 12.0458 6.65691 14.175 5.73816C16.3042 4.81941 18.5792 4.36003 21 4.36003C23.4208 4.36003 25.6958 4.81941 27.825 5.73816C29.9542 6.65691 31.8063 7.90378 33.3813 9.47878C34.9563 11.0538 36.2031 12.9059 37.1219 15.035C38.0406 17.1642 38.5 19.4392 38.5 21.86C38.5 24.2809 38.0406 26.5559 37.1219 28.685C36.2031 30.8142 34.9563 32.6663 33.3813 34.2413C31.8063 35.8163 29.9542 37.0632 27.825 37.9819C25.6958 38.9007 23.4208 39.36 21 39.36ZM21.35 23.61L19.775 25.185C19.4542 25.5059 19.2938 25.9142 19.2938 26.41C19.2938 26.9059 19.4542 27.3142 19.775 27.635C20.0958 27.9559 20.5042 28.1163 21 28.1163C21.4958 28.1163 21.9042 27.9559 22.225 27.635L26.775 23.085C27.125 22.735 27.3 22.3267 27.3 21.86C27.3 21.3934 27.125 20.985 26.775 20.635L22.225 16.085C21.9042 15.7642 21.4958 15.6038 21 15.6038C20.5042 15.6038 20.0958 15.7642 19.775 16.085C19.4542 16.4059 19.2938 16.8142 19.2938 17.31C19.2938 17.8059 19.4542 18.2142 19.775 18.535L21.35 20.11H15.75C15.2542 20.11 14.8385 20.2777 14.5031 20.6132C14.1677 20.9486 14 21.3642 14 21.86C14 22.3559 14.1677 22.7715 14.5031 23.1069C14.8385 23.4423 15.2542 23.61 15.75 23.61H21.35Z" fill="#F8BA42"/>
</g>
</svg>
