<svg xmlns="http://www.w3.org/2000/svg"  viewBox="0 0 32 32" width="32px" height="32px" style="fill: #3E120B;"><path d="M26.961,7.249c-0.257-1.086-1.124-1.953-2.209-2.21c-5.809-1.379-11.696-1.379-17.503,0 c-1.086,0.257-1.953,1.124-2.21,2.209c-1.379,5.808-1.379,11.696,0,17.503c0.257,1.086,1.124,1.953,2.209,2.21 c2.904,0.689,5.828,1.034,8.752,1.034s5.848-0.345,8.752-1.034c1.085-0.257,1.952-1.124,2.209-2.209 C28.34,18.944,28.34,13.056,26.961,7.249z M15.227,25.524c-0.15-1.613-0.206-3.392-0.12-4.797c-0.92,0-1.797-0.114-2.519-0.382 c-0.153-0.057-0.28-0.184-0.348-0.332c-0.514-1.121-0.514-1.903,0-3.023c0.069-0.149,0.204-0.277,0.358-0.334 c0.902-0.333,1.696-0.405,2.521-0.405l0.041-0.928c0.188-3.382,2.607-5.744,6.314-5.822c0.23-0.005,0.457,0.125,0.554,0.334 c0.48,1.039,0.51,2.249,0.011,3.318C21.94,13.362,21.72,13.5,21.489,13.5c-1.104,0-2.005,0.904-2.002,2.008l0.002,0.73 c1.308,0.01,2.038,0.114,3.071,0.38c0.252,0.065,0.448,0.334,0.449,0.594c0.005,1.059-0.328,2.245-0.97,2.93 c-0.086,0.054-0.169,0.107-0.254,0.161c-0.636,0.221-1.217,0.289-2.216,0.289c0.074,1.259,0.003,3.09-0.136,4.802 c-0.02,0.245-0.216,0.441-0.461,0.461c-1.081,0.091-2.163,0.133-3.245,0.124C15.468,25.977,15.25,25.781,15.227,25.524z"/></svg>