<svg xmlns="http://www.w3.org/2000/svg"  viewBox="0 0 32 32" width="32px" height="32px" style="fill: #3E120B;"><path d="M 16.003906 4.0058594 C 13.080156 4.0058594 10.155 4.3490625 7.25 5.0390625 C 6.16 5.2990625 5.2990625 6.16 5.0390625 7.25 C 3.6590625 13.06 3.6590625 18.94 5.0390625 24.75 C 5.2990625 25.84 6.16 26.710938 7.25 26.960938 C 10.15 27.650938 13.08 28 16 28 C 18.92 28 21.85 27.650938 24.75 26.960938 C 25.84 26.700937 26.700937 25.84 26.960938 24.75 C 28.340937 18.94 28.340937 13.06 26.960938 7.25 C 26.710938 6.16 25.84 5.2990625 24.75 5.0390625 C 21.85 4.3490625 18.927656 4.0058594 16.003906 4.0058594 z M 22.5 8 C 23.33 8 24 8.67 24 9.5 C 24 10.33 23.33 11 22.5 11 C 21.67 11 21 10.33 21 9.5 C 21 8.67 21.67 8 22.5 8 z M 16 10 C 19.31 10 22 12.69 22 16 C 22 19.31 19.31 22 16 22 C 12.69 22 10 19.31 10 16 C 10 12.69 12.69 10 16 10 z M 16 12 A 4 4 0 0 0 16 20 A 4 4 0 0 0 16 12 z"/></svg>