<svg xmlns="http://www.w3.org/2000/svg" viewBox="0 0 408.41 41.03"><defs><style>.cls-1{fill:#f09e72;stroke:#3e120b;stroke-miterlimit:10;stroke-width:2px;}</style></defs><title>Recurso 1</title><g id="Capa_2" data-name="Capa 2"><g id="Capa_1-2" data-name="Capa 1"><path class="cls-1" d="M3.57,24.88a5,5,0,0,1,0-8.73l26-14.51A5,5,0,0,1,37,6V35a5,5,0,0,1-7.43,4.37Z"/><ellipse class="cls-1" cx="123.64" cy="20.51" rx="8.71" ry="8.35"/><ellipse class="cls-1" cx="205.22" cy="20.51" rx="8.71" ry="8.35"/><ellipse class="cls-1" cx="286.8" cy="20.51" rx="8.71" ry="8.35"/><path class="cls-1" d="M404.83,16.14a5,5,0,0,1,0,8.75L380.36,38.44a5,5,0,0,1-7.42-4.37V7a5,5,0,0,1,7.42-4.37Z"/></g></g></svg>