<?xml version="1.0" encoding="utf-8"?>
<!-- Generator: Adobe Illustrator 21.0.0, SVG Export Plug-In . SVG Version: 6.00 Build 0)  -->
<svg version="1.1" id="Capa_1" xmlns="http://www.w3.org/2000/svg" xmlns:xlink="http://www.w3.org/1999/xlink" x="0px" y="0px"
	 viewBox="0 0 417 54" style="enable-background:new 0 0 417 54;" xml:space="preserve">
<style type="text/css">
	.st0{fill:#F09E72;stroke:#3E120B;stroke-width:2;stroke-miterlimit:10;}
</style>
<path class="st0" d="M7.8-91.1c-3.4-1.9-3.4-6.8,0-8.7l26-14.5c3.3-1.9,7.4,0.6,7.4,4.4v29c0,3.8-4.1,6.2-7.4,4.4L7.8-91.1z"/>
<ellipse class="st0" cx="127.9" cy="-95.4" rx="8.7" ry="8.4"/>
<ellipse class="st0" cx="209.5" cy="-95.4" rx="8.7" ry="8.4"/>
<ellipse class="st0" cx="291.1" cy="-95.4" rx="8.7" ry="8.4"/>
<path class="st0" d="M409.1-99.8c3.4,1.9,3.4,6.8,0,8.7l-24.5,13.5c-3.3,1.8-7.4-0.6-7.4-4.4V-109c0-3.8,4.1-6.2,7.4-4.4L409.1-99.8
	z"/>
</svg>
