<svg xmlns="http://www.w3.org/2000/svg"  viewBox="0 0 32 32" width="32px" height="32px" style="fill: #ffffff;"><path d="M16,3C8.832,3,3,8.832,3,16c0,2.062,0.496,4.106,1.437,5.938c-0.272,1.2-0.979,4.743-0.048,5.674s4.473,0.225,5.674-0.049 C11.894,28.504,13.938,29,16,29c7.168,0,13-5.832,13-13S23.168,3,16,3z M21.25,22.8c-2.04,0.88-6.12-1.27-8.45-3.6 c-2.33-2.33-4.48-6.41-3.6-8.45c0.44-1.03,2.25-1.88,3.66-1.73c0.86,0.08,2.18,1.71,2.25,3.09c0.05,1.13-1.13,2.25-1.13,2.25 s0.97,0.75,1.94,1.72c0.94,0.92,1.72,1.94,1.72,1.94s1.12-1.18,2.25-1.13c1.38,0.07,3.01,1.39,3.09,2.25 C23.13,20.55,22.28,22.36,21.25,22.8z"/></svg>